<svg version="1" xmlns="http://www.w3.org/2000/svg" width="933.333" height="933.333" viewBox="0 0 700.000000 700.000000"><path d="M152.2 8c-2.2 1.8-5.4 1.7-7.9-.2-.7-.6-1.8-.1-3.2 1.3-1.4 1.5-2.5 1.9-3.8 1.4-1-.5-8.5-.9-16.8-1-8.3-.1-16.2-.7-17.7-1.3-2-.8-2.8-.8-2.8-.1 0 .7-1 .9-2.7.4-3.2-.9-3.1-.9-10.2-.2-4.1.4-5.9 1.1-7.2 2.8-.9 1.2-2.1 1.9-2.7 1.5-.6-.4-3.2.2-5.6 1.4-5.5 2.5-5.6 2.5-5.6.1 0-5.5-4.5-7.3-5.6-2.4-1 4.8-1.3 5.3-3.1 6-1 .3-2.8 1.5-4.1 2.7-1.5 1.4-3.9 2.1-7.4 2.2-5.6.3-6.8 1.3-6.8 6.1 0 3.5-2.2 5.5-7.1 6.7-1.5.3-3.7 2.2-5.3 4.6-1.4 2.2-3.3 4-4 4-2.1 0-4.6 2.8-4.6 5.2 0 1.1-1.1 3.3-2.4 4.9-2.4 2.8-2.4 5.5-.1 11 .3 1 .2 2-.4 2.4-1.6.9-1.3 6.8.4 9.1 1.9 2.6 1.9 3.1-.6 3.7-1.2.3-1.9 1-1.6 1.5 1.4 2.2 1.5 6.8.2 10.6-.8 2.2-1.3 5.4-1.1 6.9.2 1.9-.4 3.7-1.9 5.3l-2.3 2.5 2.1 6.7c1.2 3.7 2.8 7.3 3.4 8 .7.7 1.3 1.8 1.3 2.3 0 .5.6.9 1.4.9.7 0 1.9.7 2.6 1.5 1.1 1.3.8 1.5-1.8 1.5-2.3 0-3.2.6-4.2 3-1.3 3.1-1.3 4-.5 15.5.7 9.7.7 11.3-.6 13.6-.8 1.5-.7 3.4.1 7.1 1.3 5.1 3.2 7 5.3 4.9 1.6-1.6 2.6-1.4 2.2.6-.2 1-.4 3.1-.5 4.8 0 2.5-.2 2.7-1.1 1.2-2.8-4.8-6 1-6.4 11.7-.1 3.6.3 6.9 1.1 8.1.7 1.1 1.6 4.7 1.9 8 .3 3.3.8 6.8 1.1 7.8.3 1 0 2.4-.6 3.2-1 1.2-1 2.1-.1 4.4.7 1.5 1.1 5.3 1 8.2-.2 3 .3 6.4.9 7.7 1.1 1.8 1 2.6-.3 4.4-.8 1.3-1.5 3-1.5 4s-.4 1.8-.9 1.8c-.9 0-1.7 3.1-2.8 10.2-.4 2.8 0 4.4 1.6 6.7 2.6 3.6 2.6 5.1.2 10.4-3.1 7-3.5 11.9-1.3 16.8 1.1 2.4 1.8 5.2 1.5 6.4-.2 1.1-.4 4-.4 6.4.1 2.4-.5 5.4-1.3 6.6-1.3 2-1.3 2.6.3 5.6 1.6 2.9 1.6 3.6.3 6.2-1.8 3.6-1.9 7.7-.2 8.7 1.8 1.1 2 7.7.3 12.4-1.7 5.1-1.7 10.1.2 11.6 1.9 1.6 1.9 5.4 0 7-2 1.6-1.9 4.6.1 5.4 1.4.5 1.3.9-.3 3.6-2 3.5-1 6.3 2.6 6.8 2.1.3 2.1.4-.8 3.8L11 386l2 5.2c1.1 2.9 1.8 5.4 1.5 5.6-.2.3 0 1.2.5 2.2.7 1.3.4 2-1.6 2.9-2.2 1-2.5 1.6-1.9 3.9.3 1.5 1.2 3.9 2 5.4 1 2.1 1 3.1.1 4.5-2.5 3.7-3.8 10.3-2.7 13.6.6 1.8.9 3.9.7 4.7-.1.8-.6 3.2-1.1 5.3-.5 2.8-.4 4.2.8 5.5.9.9 1.9 4.2 2.3 7.2.4 3 1 6.4 1.4 7.5.4 1.1.3 3.1-.2 4.4-.6 1.7-.5 2.7.3 3.2.7.4.8 1.2.3 2s-1 2.7-1.1 4.4c-.5 7.9-1 9.8-2.5 10.9-1.4 1.1-1.6 2.4-1.1 8.7.3 4.1 1.2 8.6 1.9 10 .9 1.8 1 2.9.3 3.6-1.5 1.5-.7 10.5 1 11.1 1 .3 1.2-.1.8-1.7-.6-2.5.8-3.8 1.7-1.5.8 2.1-.3 6.5-2.2 8.6-1.4 1.6-1.3 2 .3 3.8 1.5 1.7 1.6 2.4.7 4.6-.7 1.4-1.5 6.2-1.8 10.8-.5 7.9-.5 8.3 1.6 8.9 1.9.5 2.1 1 1.5 3.9-.4 1.8-1.3 5.1-2.1 7.3-.9 2.6-1.2 6.4-.8 10.5.2 3.6.6 11.5.8 17.7.2 8.4.7 11.8 2 13.8 2 3 1.7 6.5-1.2 11.8-1.6 3.1-1.8 4.5-1.1 7 .5 1.8 1.1 6.2 1.4 9.9.4 8.2 1.2 10.9 3.7 12.6 2.3 1.7 1.6 4.9-1.8 7.7-2.6 2.1-2.6 2.5.7 11.2.7 1.7.5 2.3-.6 2.3-2 0-1.9.4 1 5.7 1.6 2.8 2.2 4.9 1.7 5.7-.5.6-1.2 1.9-1.6 3-.5 1.6-.2 1.8 2.1 1.4 1.6-.3 3.7-.9 4.8-1.3 1.3-.5.8.4-1.5 2.5-2.2 2.1-3 3.5-2.2 3.8.6.2 1.2 1.2 1.2 2.1 0 2.7 1.1 3.2 3.4 1.6 2.6-1.9 7.4-1.9 11.8-.1 3.3 1.4 26.3 3.2 35.3 2.8 3.4-.2 17.6-.2 38.5-.2 3 .1 8.2-.2 11.5-.5 3.3-.4 7.6-.6 9.6-.6 2.4 0 4.3-.6 5.4-1.9 2.3-2.5 3.1-2.5 3.8 0 .4 1.6 1.4 2 4.9 2 3.9.1 7.2.3 18.1 1.3 2.7.3 4.6-.2 6.9-2l3.2-2.3 2.4 2.5c1.3 1.4 2.7 2.3 3.2 2 .5-.3 2.9-.1 5.3.6 3.8.9 4.9.8 7.1-.6 2.2-1.4 3.8-1.6 8.4-1 3.1.4 6.8.6 8.2.5 1.4 0 10.4-.2 20-.3 9.6-.1 18.5-.6 19.7-1 1.4-.5 3.2-.3 5.2.7 2.3 1.2 3.6 1.3 6 .5 1.7-.6 4.2-.8 5.5-.5 3.1.8 13.7-1.2 15.6-2.9 1-.9 2-1.1 3-.5 2.4 1.5 4.8 1.2 7-1 1.6-1.6 2-1.7 2-.5 0 .9 1.2 2 2.8 2.6 1.5.7 3.7 1.6 4.9 2.2 1.7.7 3.5.4 7.8-1.3 3.1-1.3 7.1-2.2 8.8-2.1 8.6.4 12.5 0 15.5-1.6 3.2-1.8 3.3-1.8 5 .3 2 2.5 8.5 4.8 11.4 4.1 1.1-.3 2.8-.1 3.8.6 1.4.8 2.2.8 3.2-.1.8-.6 4.8-1.6 8.8-2.2 6.8-1 7.5-.9 9.5 1l2.2 2.1 1.5-2.2c1.4-2.2 2.7-2.5 18.1-3.2 2.1-.1 4.1-.7 4.5-1.4.6-.9 3.5-1.1 10-.9 7.2.3 9.9.9 12.7 2.6 2.5 1.5 4.3 2 6.4 1.5 2-.4 3.8-.1 5.4 1 2.2 1.4 2.5 1.4 3 0 .8-1.9 3.5-1.9 8 0 3.2 1.3 3.6 1.3 5.2-.5 1-1.1 2.6-2 3.5-2 .9 0 2.1-.5 2.8-1.2.9-.9 1.5-.9 2.4 0 .7.7 2.9 1.2 5.1 1.2 2.1 0 4.6.4 5.6 1 1.2.6 2.9.5 4.9-.2 2.4-.9 3.9-.9 7.1.2 3.6 1.2 4.6 1.1 7.5-.3 2.8-1.3 3.7-1.3 5.2-.3 3 2.1 12.1 2.8 12.8 1 .8-2 2.7-1.7 3.3.6.8 2.9 4.1 3.5 6.6 1.2 1.6-1.5 3.2-1.9 6.2-1.6 2.5.2 4.5-.2 5.5-1.1.9-.8 2.5-1.3 3.6-1.1 7.9 1.5 10.5 1.6 12.2.7 1-.5 7-1.1 13.3-1.2 6.2-.1 12.3-.6 13.5-1.1 1.6-.7 2.8-.6 4.5.5 4 2.4 7.8 2.9 10.2 1.2 2.6-1.8 10.9-2 13.7-.3 1.5.9 2.7 1 5.2.1 3.2-1.1 6-1.6 15.8-2.8 2.5-.3 5.9-.9 7.5-1.3 2.1-.6 4.1-.4 6.8.8 3.1 1.4 4.6 1.5 8.3.7 3.3-.8 4.7-.8 5.3.1.4.7 1.2.8 2.1.2.8-.6 4.4-1 7.9-1 4.9 0 7.7-.6 11.8-2.6 5.7-2.8 6.8-4.8 6-10.2-.4-2.1.2-4 1.9-6.4 1.3-1.8 2.9-5.4 3.6-8.1 1-4 1-5.4-.3-9-1.9-5.1-1.5-8.8 1.6-16.4 2.1-5.2 2.2-6 .9-8-1.8-2.8-1.8-7.7 0-9.2 1.2-1 1.2-1.6-.1-4.2-1.1-2.3-1.3-4.5-.8-8.7 1.3-9.6.7-17-1.8-21.9-.8-1.6-1.1-3.4-.7-4.3 3-5.7 4-16.7 3.1-32-.2-1.9 0-12.7.4-24 .5-13.2.3-23.7-.4-29.4-.8-6.6-.8-9.3.1-10.3.6-.8 1-4.6.8-9.6-.3-12.2-.3-14.1.4-27 .3-6.5 1.1-12.7 1.6-13.8.8-1.5.7-2.1-.4-2.5-1.3-.5-1.5-2.5-1-12.7 1.6-39.4 1.8-54.1.9-79.7-1.1-30.1-1-38.7.5-41.5 1.2-2.2 1.1-2.7-.3-3.8-1-.7-1.8-3.4-2.2-7.1-.3-3.3-.8-6.2-1-6.6-.2-.3.5-2.5 1.6-4.9 1-2.4 1.6-4.8 1.1-5.5-.8-1.2-.8-1.4-1.1-20.9-.3-11 0-14.2 1.2-16.1 1.1-1.6 1.3-2.6.5-3.4-1-1-1.3-12.2-.5-16.7.2-1.1 0-3.2-.5-4.6-.6-1.9-.5-3.7.5-6.1 1.1-2.6 1.2-4.8.4-10.2-.6-4.6-.6-8 .1-10.1.6-2.2.6-3.7 0-4.3-.6-.6-.4-2 .6-4 1.4-2.8 1.4-3-.3-3.5-1.7-.4-1.9-1.7-2-11.8-.1-6.3-.4-15-.6-19.4-.2-4.4 0-10.3.5-13 .4-2.8 1.1-7.9 1.4-11.5.4-3.5.9-6.6 1.1-6.8.2-.3-.2-1.9-1-3.7-.7-1.9-1.1-3.6-.8-3.8.5-.5.5-7.6 0-12.7-.2-1.4-1.4-3.7-2.8-5.1-2.6-2.5-3.7-6.6-5.5-20.2-.4-2.3-1.2-5.7-2-7.6-.8-1.8-1.1-3.7-.8-4.3.3-.5.1-2.2-.5-3.7-.8-1.7-.9-3.6-.3-5.1.7-1.8.1-4.3-2.5-10.4-1.9-4.4-3.6-8.3-3.9-8.5-.2-.2-1.2.3-2.2 1.2-2.7 2.4-4.1 2.1-4.7-1.1-.4-1.5-1-3.5-1.6-4.4-.5-1-.9-2.4-.9-3.2 0-2.6-1.7-2.6-5.4-.1-4.7 3.2-6 3.2-5.2 0 .5-1.9.3-2.5-1.1-2.5-.9 0-2.4.7-3.4 1.6-1.7 1.5-1.9 1.4-2.5-1-.7-3.1-4.6-3.6-8.2-1.1-2.3 1.6-9.2 1.2-9.2-.6 0-.5-.6-.6-1.2-.4-5.4 1.8-9.1 1.9-28.8 1.2-8-.3-14.9-.6-15.5-.6-8.5-.2-28.2 1-32.2 2-4.7 1.1-5.4 1-7.7-.8s-2.9-1.9-7.3-.8c-5.8 1.6-32.3.7-34.2-1-.1-.2-1.4 0-2.6.5-1.3.5-3.6.6-5.2.1-4.1-1.1-6.3-.3-6.3 2.2 0 1.7-.2 1.9-.9.8-1.2-1.8-13.3-3.4-14.2-1.9-.4.7-4.6 1.2-10.2 1.2-8.1.1-9.8-.2-11.6-1.8-2.1-1.9-2.2-1.9-6.5.1-3.4 1.7-5.5 2-10.2 1.6-3.2-.3-7.2-.5-8.9-.4-7.6.4-12.7.3-21.5-.4-7.5-.5-10.4-.4-13.2.8-2.2.9-4 1.2-4.9.6-2-1.3-10.8-.8-12 .8-1.7 1.9-3.6 1.6-4.2-.8-.5-2-1-2.1-9.5-1.5-6.6.4-9.9.2-12.4-.8-2.9-1.3-3.5-1.3-5 .1-2.7 2.5-7.9 3.2-11.2 1.6-1.9-1-4-1.2-6.5-.8-6.2 1.3-33.9 1.1-35.2-.2-.8-.8-1.9-.9-3.8-.1-1.4.5-9.7 1.1-18.3 1.3-12.8.3-15.7.1-16.2-1-.6-1.7-2.9-1.1-7.1 2-2.9 2.1-3.1 2.1-6 .4-4.3-2.7-9.6-3.1-22-2-6 .6-11.7 1.1-12.5 1-4.8-.1-7.9-.5-8.6-1.2-.4-.4-1.8 0-3.1.8-1.5 1-3.2 1.3-4.6.9-2.9-1-4.7-1.2-14.7-1.9-4.7-.3-9.9-.9-11.5-1.4-2.4-.6-3.6-.4-5.3.9zm145.2 5.5c.3.9 0 1.5-.9 1.5-.8 0-1.5-.7-1.5-1.5s.4-1.5.9-1.5 1.1.7 1.5 1.5zm12.2-.3c.4.6-.3 2-1.7 3.1-2.2 1.7-2.4 1.8-2.7.3-.8-3.8 2.6-6.4 4.4-3.4zm72.8 2.3c-.4.8-1.1 1.2-1.6.9-.6-.4-.5-1 .3-1.5 1.9-1.2 1.9-1.1 1.3.6zM381 20c0 .5-.4 1-1 1-.5 0-1-.5-1-1 0-.6.5-1 1-1 .6 0 1 .4 1 1zm248.2 1.2c-.7.7-1.2.8-1.2.2 0-1.4 1.2-2.6 1.9-1.9.2.3-.1 1.1-.7 1.7zM295 20.4c0 .3-.4.8-1 1.1-.5.3-1 .1-1-.4 0-.6.5-1.1 1-1.1.6 0 1 .2 1 .4zm59 .6c0 .5-.5 1-1.1 1-.5 0-.7-.5-.4-1 .3-.6.8-1 1.1-1 .2 0 .4.4.4 1zm30 7c0 .5-.4 1-.9 1-.6 0-1.3-.5-1.6-1-.3-.6.1-1 .9-1 .9 0 1.6.4 1.6 1zM219.2 46.8c2.6.2 5.7-.2 6.8-.8 1.6-.9 2.5-.8 3.6 0 .7.7 4 1.3 7.2 1.4 3.2.2 6.6.7 7.6 1.3 1.1.6 3.5.7 6 .2 6.5-1.2 29.8-.6 32.3.9 1.5.8 2.9.9 4 .3 5.8-2.9 9.5-3.3 13.4-1.6 3.7 1.7 4 1.7 5.8.1 1.4-1.3 2.6-1.6 4.3-1 1.3.4 2.8.7 3.3.5.6-.2 2.6-.3 4.5-.3s4-.4 4.7-1c.7-.5 1.6-.7 2.1-.4.5.3 3.8.8 7.3 1.2 3.5.3 6.8.8 7.2 1.1.4.3 4 .4 8 .3 10.6-.2 17.3-.2 25.2 0 3.9.2 8.8-.3 10.9-1 2.7-.9 6.9-1 15-.5 10.4.7 13 .8 17.4.4.9-.1 3.7.2 6.2.5 8.4 1.3 23 1.3 24.8 0 1.3-1 2.3-.9 5.3.6 3.5 1.8 3.7 1.8 6.7 0 3.1-1.9 3.2-1.9 7.7 0 4.2 1.8 4.5 1.8 5.4.2.8-1.4 2.2-1.6 8.8-1.3 8.2.4 28.6.5 33.9.1 2.9-.2 10.5.4 20.7 1.6 3.8.5 5.2.2 6.8-1.2 1.6-1.5 2.2-1.6 2.9-.5.6 1 4.1 1.4 14.1 1.6 7.4.1 15.1-.2 17.1-.5 2.1-.4 4.1-.3 4.7.3.7.7 1.5.6 2.4-.2.9-.7 3.4-1 6.8-.6 3 .2 8 .7 11.2 1 6.6.6 13.1 1.9 17.3 3.6 2.8 1.1 9.6 1.3 14.1.5 2.7-.6 8-3.3 8.8-4.6.4-.6 1.1-.8 1.6-.4.5.3 2.2.8 3.6 1 3.5.7 3.4.5 4 5.3.5 3.5.1 4.5-2.6 7.6-3.2 3.7-3.9 5.9-2 7.1.6.3.8 1.6.5 2.7-.3 1.2.1 2.9 1.1 3.9 1.1 1.2 1.4 2.7.9 5.5-1 5.3-1 8.4-.1 11.1.6 1.9.3 2.5-2.4 3.5-3.5 1.3-4.1 2.7-1.1 2.7 1.1 0 2 .3 2.1.7.6 3.9 1 10 1.3 15.8.1 3.8.8 8.3 1.4 9.9.7 1.6 1 3.7.6 4.8-.3 1-.7 8-.9 15.6-.2 7.5-.6 16.3-1 19.5-.7 5.4-.6 6 1.9 8.6 2.2 2.3 2.4 3 1.2 3.4-2.1.8-3.1 7.2-1.9 12.4.8 3.3.7 5.6-.2 8.8-.8 2.4-1.2 4.5-1 4.7.3.2.9 4.2 1.4 8.9.8 7 .7 8.6-.5 9.5-1.7 1.3-1.8 3.8-.4 6.5.8 1.4.8 1.9-.2 1.7-2.2-.5-2.1 4 .1 5.2 1.6.8 1.9 1.7 1.4 4.3-.3 1.7-1.1 4.2-1.9 5.3-.9 1.5-.9 2.5-.2 3.2.6.6 1 6.9.9 15.8 0 8.2 0 16.2.1 17.9.3 6.4.3 22.2-.1 25.5-.3 3.3.4 13.1 1.4 21.2.4 2.5-.2 5.8-1.6 9.5-1.5 4-2.2 7.7-2.1 12 .1 3.4-.2 6.5-.8 6.8-1.5.9-.2 2.5 2.1 2.5 1.6 0 1.9.7 1.9 4.4 0 2.4-.6 6.1-1.4 8.2-.9 2.7-1 4.7-.4 6.4 1.3 3.4.8 16.8-.7 20.5-.7 1.7-.9 3.7-.5 4.5 2.3 4.6 3 6.9 3 10 0 1.9.2 6.3.4 9.8.3 4.3 0 7.2-1.1 9.2-.8 1.6-1.1 3.5-.8 4 1.2 1.9.7 10.7-.7 12.9-1 1.7-1 2.5 0 3.9 2.8 4 3.3 6.7 2.6 16.6-1.1 17.4-1.1 33.9 0 38.3.8 3.6.7 4.5-.8 6.2-1.6 1.8-1.7 2.4-.6 5.3.8 2 1.4 10 1.6 20.6.2 9.5.4 18.7.5 20.5.1 1.8-.1 4.8-.5 6.8-.5 2.4-.4 3.9.4 4.4 1.5.9.3 9.1-2 13-1.1 1.9-1.6 4.3-1.3 6.5.4 2.9.1 3.7-1.9 4.5-2.9 1.3-3.8 4.8-1.1 4.3 1-.2 1.7.2 1.6.9-.2.6.9 2.1 2.2 3.1 2.6 2.1 3.3 4.2 1.4 4.2-.8 0-1 1.7-.5 5.5.4 3.4.2 5.5-.4 5.5-1.5 0-2.8 6-2.3 11 .4 4.8.4 4.8.3 11.5-.1 3.7-.8 5.2-4 8.7l-3.8 4.2-4.9-2.3c-3.9-1.8-5.7-2.1-8.9-1.5-5.3 1.1-8.6.8-9.7-1.1-.7-1.4-1.2-1.4-4 .3-1.8 1-4 1.7-5 1.5-.9-.3-2 .3-2.3 1.1-.8 2-2.1 2-5.7.1-2.5-1.3-3.4-1.2-8.9.5-4.2 1.3-6.6 1.6-7.4.9-.7-.5-4.1-1.1-7.7-1.4-3.6-.2-7.4-.8-8.3-1.3-1-.6-2.7-.6-3.9-.2-6.7 2.5-40.7 3-45.2.6-2.2-1.1-3.1-1.1-4.8-.1-3.8 2.5-17.9 4.7-23.4 3.7-2.8-.5-13-.8-22.8-.7-9.8.2-20.3-.1-23.3-.5-3.3-.4-6.4-.3-7.7.3-1.6.7-3 .7-4.7-.1-1.7-.7-3.6-.7-6.7 0-4.8 1.1-72.9 1.3-79.1.2-3-.5-3.8-.3-4.7 1.5-1.5 2.7-2.7 2.7-6.3-.4-2.5-2.1-4-2.5-9.6-2.5-7.3 0-8.3.4-10.1 3.8-1.2 2.3-1.2 2.3-2.9.3-1.1-1.4-3.1-2.2-6.1-2.3-3.8-.3-4.7.1-5.6 1.9-1.3 2.5-2.5 2-2.5-.9 0-2-3.4-2.6-4.5-.8-.4.7-2.8.9-6.3.5-7.5-.8-41.3-1.1-50.2-.4-1.9.1-11.1.2-20.5.1-41.9-.5-45.4-.4-47.7 1.8-2.1 1.9-4.7 1.5-6.3-1-.8-1.3-5.8-1.3-7.2.1-.8.8-2 .8-4.5 0-1.8-.6-4.6-1-6.3-1-1.6.1-15.6-.1-31-.4-15.7-.2-29.1 0-30.5.5-1.4.5-3.2 1.8-4.1 3-1.6 2-1.6 2-2.8-1-1.1-2.6-1.7-2.9-5.4-3-2.3 0-6.6-.3-9.5-.7l-5.3-.8.1-20.1c0-11 .1-30.3 0-42.7 0-12.5.4-23.8.9-25.2.7-1.8.6-3-.5-4.6-1.3-1.8-1.3-2.4-.1-4.2 1.3-1.8 1.3-2.4 0-5.1-1-2-1.3-4.2-.8-6.6.3-2.1.6-4.4.5-5.2-.1-.8-.3-9.9-.4-20.2-.2-15.9-.5-19-1.9-20.6-2.2-2.4-2.1-2.9.4-3.5 2-.5 2.1-1 1.3-6.9-.8-6.9-.8-10 .1-35.8.9-23.9.8-30.6-.5-33-.8-1.5-.8-2.5-.1-3.4.8-.9.8-2.2 0-4.5-.8-2.4-.8-3.5.1-4.6.9-1.1 1-2.9.5-5.8-.4-2.3-.7-6.2-.6-8.7.1-2.5.3-9.9.4-16.5.1-6.6.6-12.5 1-13.2.4-.7.3-4.1-.3-7.6-1.1-5.8-1-6.7.9-9.8 2.2-3.6 2.8-8.5 1-9.1-.5-.2-1.2-3.9-1.5-8.3-.7-12.9-1.3-18.5-2.1-19.8-1.2-2-1.2-3.7.1-7.6 1.6-4.5 1.5-86-.2-90.1-.7-1.8-.6-3.2.3-5 .8-1.7 1-6.4.8-14.5-.2-6.6-.4-19.7-.3-29 0-15.4-.5-21.7-2.5-28.3-.5-1.5-.3-2.2.7-2.2.9 0 1.3-1.3 1.3-4.3 0-2.3.4-9.8.8-16.7.7-11.1 1-14.3 2.3-21.3.2-1.1-.6-2.2-2.1-2.9-2.4-1.1-2.4-1.2-1.8-10.7.3-5.3 1.1-11.3 1.8-13.4 1.1-3.2 1.1-4.3 0-6.4-1.5-2.9-.7-5.6 2-6.7 2-.7 24.7-2.1 30.5-1.8 8.4.4 14.5.8 15.5 1.1 1.6.4 11.2.1 19.5-.6 4.1-.3 8.6-.6 10-.5 22.7 1.1 28.9 1.3 36.5 1.5 5 .1 9.5-.1 10.1-.6.6-.4 7.7-.9 15.8-1.1l14.6-.4 2.3-2.8 2.2-2.8.5 2.9c.5 2.8.9 3 5.2 3.3zM355 42c0 .5-.4 1-1 1-.5 0-1-.5-1-1 0-.6.5-1 1-1 .6 0 1 .4 1 1zM45 140.6c0 .8-.4 1.2-1 .9-.5-.3-1-1-1-1.6 0-.5.5-.9 1-.9.6 0 1 .7 1 1.6zm2.4 90.5c-3.6 4-4.6 1.7-1.2-2.7 1.9-2.4 2.3-2.6 2.6-1 .2.9-.4 2.6-1.4 3.7zm-24.9 49.7c1.4 1 1.9 5.2.6 5.2-.5 0-1.7-1-2.5-2.2-2-2.9-.7-5 1.9-3zM27 310c0 .5-.2 1-.4 1-.3 0-.8-.5-1.1-1-.3-.6-.1-1 .4-1 .6 0 1.1.4 1.1 1zm-6 65.6c0 .8-.4 1.4-1 1.4-.5 0-1-.9-1-2.1 0-1.1.5-1.7 1-1.4.6.3 1 1.3 1 2.1zm18 187.3c0 .6-.4 1.3-1 1.6-.5.3-1-.1-1-.9 0-.9.5-1.6 1-1.6.6 0 1 .4 1 .9zm4 10.6c0 .8-.7 1.5-1.5 1.5s-1.5-.7-1.5-1.5.7-1.5 1.5-1.5 1.5.7 1.5 1.5zM18.5 595c.3.5.1 1-.4 1-.6 0-1.1-.5-1.1-1 0-.6.2-1 .4-1 .3 0 .8.4 1.1 1zm2.2 24.3c-.6 2-2.7 1.9-2.7-.2 0-1.4.5-1.9 1.5-1.4.9.3 1.4 1 1.2 1.6zM256 661.5c0 .9-.6 1.2-1.5.9-.8-.4-1.2-1-.9-1.5.8-1.4 2.4-1 2.4.6zM120 664c0 .5-.2 1-.4 1-.3 0-.8-.5-1.1-1-.3-.6-.1-1 .4-1 .6 0 1.1.4 1.1 1zm155.2 1.5c0 .5-.5 1.1-1.1 1.3-.6.2-1.1-.4-1.1-1.3s.5-1.5 1.1-1.3c.6.2 1.1.8 1.1 1.3zm22.8 0c0 .8-.4 1.5-1 1.5-.5 0-1-.7-1-1.5s.5-1.5 1-1.5c.6 0 1 .7 1 1.5zm243-.1c0 .3-.4.8-1 1.1-.5.3-1 .1-1-.4 0-.6.5-1.1 1-1.1.6 0 1 .2 1 .4zM272 671c0 1.1-.4 2-.9 2-1.4 0-2.3-1.8-1.6-3 1-1.7 2.5-1.1 2.5 1zm16.7.6c-.3.3-1.2.4-1.9.1-.8-.3-.5-.6.6-.6 1.1-.1 1.7.2 1.3.5zM430 683c0 .5-.5 1-1.1 1-.5 0-.7-.5-.4-1 .3-.6.8-1 1.1-1 .2 0 .4.4.4 1zm47 2.1c0 .6-.4.7-1 .4-.5-.3-1-1.1-1-1.6 0-.6.5-.7 1-.4.6.3 1 1.1 1 1.6z"/><path d="M484.2 65c-3.4.8-11.2 5.5-11.2 6.8 0 .4-2 1.8-4.4 3-3.6 1.9-4.8 2.2-6.5 1.3-1.3-.8-2.8-.8-3.8-.3s-4.5 1.2-7.8 1.5c-4 .4-6.4 1.2-7.2 2.3-1 1.4-1.7 1.5-3.7.6-1.4-.6-4.2-.9-6.3-.6-3.4.4-9.3-.5-16.4-2.6-2-.6-3.6-.2-6.5 1.5-3.5 2.1-4.1 2.2-6.6.9-1.7-.9-2.9-1-3.3-.4-.3.6-2.8 1-5.5 1-5 0-8 1.7-8 4.6 0 1.7-2.2 1.8-3.7.3-1.4-1.4-3.8-.1-9 4.9-4 3.6-4.2 6.4-.7 8.7 1.4.9 2.3 1.9 2 2.2-.3.3-1.3 0-2.2-.7-1.3-1.2-1.7-1.1-2.5.1-.5.8-.9 2-.9 2.6 0 1.2-1.3 1.7-3.4 1.4-2-.4-4.5 3.1-3.7 5.2 1.5 4.2.4 16.1-1.9 19.9-1.7 3-2.1 5.2-2.1 14.8 0 10.6.2 11.5 2.6 14.9 2 2.9 2.2 3.7 1 3.9-1.7.4-1.6.2-2 6-.2 2.4-.6 5-.9 5.7-.3.8.3 1.7 1.4 2 2.6.8 3.5 4.2 1.6 6.1-1.8 1.7-2.2 6.9-.6 7.9 1.9 1.2 1.1 6.9-1.1 8.3l-2.1 1.4 2.1 1.9c1.2 1.1 2.1 2.8 2.1 3.7 0 2.9 2.5 5.5 5.6 5.8 1.6.1 3.9.5 5.1.7 1.4.4 3.6-.4 6.2-2.3 5.2-3.8 6.4-6 4.5-8.1-1.3-1.5-1.2-2 .9-4.5 1.7-2 2.2-3.5 1.7-4.9-.4-1.1-.6-2.3-.4-2.6.5-.9.4-6.2-.2-18.9-1.2-21.7-1.1-22.6 1.4-25.9l2.3-3.1-2.8-2.4c-2.6-2.3-2.7-2.5-1.1-4.3.9-1 1.9-3.8 2.3-6.3.3-2.5.8-5.4.9-6.5.2-1.1 0-3.4-.5-5.2-.4-2-.3-3.6.3-3.9.5-.4.8-1.7.5-3-.5-2.6.8-3.4 5.3-3.4 2.3 0 3 .5 3.5 2.9.3 1.5 1.7 3.8 3.2 5 2.1 1.9 2.4 2.8 1.8 5.4-.4 1.8-.8 4.8-1.1 6.7-.2 1.9-.8 3.6-1.4 3.8-.5.2-.7 1.5-.4 2.8.5 1.8.2 2.4-.9 2.4-1.4 0-1.5.5-.3 3.7.7 2.1 1.1 4.7.9 5.8-.6 3.7 1 27.2 2.1 29.7.6 1.2.3 2-.8 2.4-.9.3-1.6 1.7-1.6 2.9 0 1.3-.5 2.7-1 3-.8.5-.8 1.1 0 2 1.5 1.8 1 14.1-.6 16.3-1.8 2.3-1.7 3 .6 3.7 1.5.5 1.7 1 1 2.3-.5.9-1.1 2.9-1.4 4.4-.3 1.4-2.4 4.4-4.6 6.5-3.2 3-5.1 3.9-9.3 4.5-9.2 1.3-15.2 3.3-15.6 5.4-.2 1-1.2 2.5-2.2 3.2-2.1 1.5-2.5 5.3-.8 8.3.7 1.4.7 2.9 0 5-.8 2.3-.7 3 .7 3.9 1.4.8 1.4 1 .2 1.1-.8.1-1.9.1-2.3 0-1.6-.3-4.7 2-4.7 3.5 0 .8 1 2.8 2.2 4.4l2.1 3-2.2 6.7c-2.8 8.6-3.2 14.7-1.2 20 1.4 3.9 1.4 4.6-.1 7-1.6 2.8-1.7 10.1-.3 22 .4 3.4.2 5.9-.7 7.2-1 1.7-.9 2.3.6 4 1.4 1.5 1.5 2.4.7 3.9-1.2 2.3.3 4 4.2 4.7 1.3.3 4.1 1.2 6.2 2.1 3.6 1.5 3.9 1.4 6.6-.5 1.6-1.2 3.5-2.1 4.4-2.1 2.8 0 3.9-4.3 2.6-10.8-.8-4.3-.8-6.7-.1-8.7 1.3-3.4.3-11-1.6-12.6-1.2-1-1.2-1.5.3-3.1 1.5-1.7 1.8-3.9 1.8-13.3 0-7.6.4-11.7 1.3-12.7 1-1.2 1-2.1.1-4.2-1-2.1-.9-2.9.3-4.3.9-1 2.3-3.3 3.2-5 1.9-3.7 5.8-5.3 7.9-3.2.7.8 2.2 2.7 3.2 4.3 2 3.1 2.1 3-2.9 6.1-1.4.8-1.5 1.6-.6 4.5.6 1.9 1.3 6 1.5 9.1.2 3 1.3 8.2 2.4 11.5 1.6 4.7 1.7 6 .6 6.2-2.4.6-2.4 3 .1 6.8 1.4 2 2.3 3.9 2 4.1-.8.8 3.5 8.4 7.8 14 3.5 4.5 4.9 5.6 10.3 7.3 3.4 1.1 7.3 2 8.7 2 1.4 0 2.7.4 3.1 1 .3.5 3.3 1.2 6.6 1.6 3.4.4 7 1.4 8.2 2.5 2 1.5 2.4 1.6 3.8.3 2-1.8 10.5-2.8 11.4-1.4 1 1.6 4.5 1.2 8.1-1l3.3-2.1 4.2 2.1c4.9 2.5 8.2 1.7 10.1-2.4.6-1.4 1.7-2.7 2.4-3 1.9-.7 1.8.8-.1 2.4-4.5 3.8 0 5.3 15 4.9 9.1-.3 13.5-.2 20.5.2 10.2.6 19.1-.5 20.6-2.6 1.2-1.6 1.7-1.7 4-.6 1.9.8 3.6.9 5.8.2 2.5-.8 8.1-1.7 12.7-2 .4-.1.9-1 1.2-2.1.4-1.5 1.4-2 3.6-2 2.5 0 3.8-.9 7.1-5.1 2.2-2.8 4-5.9 4-7 0-1.1 1.1-2.4 2.5-3.1 1.8-.8 2.9-2.5 3.9-5.7.7-2.5 1.8-4.7 2.5-4.7.6-.1 1.3-.2 1.6-.3.3 0-.4-1.9-1.5-4.2-2.2-4.2-2.2-7.7-.1-16.2.5-2 .6-5.2.2-7-.4-1.7-.6-3.8-.5-4.5.1-.6.2-1.6.3-2.2 0-.5.7-.7 1.4-.4 2.3.8 1.3-3.7-1.2-5.5-2.1-1.6-2.2-1.9-.6-3.4 3.8-3.8 8.5.2 8 6.8-.1 1.6.4 4.2 1.2 5.7 1.2 2.4 1.1 3.1-.1 5.1-1.3 1.9-1.3 2.8-.3 5.9.9 2.5 1.2 9.4 1 23-.2 17.6-.1 19.6 1.8 23.3 3 6 4.9 7.4 10.7 8 2.9.3 5.6.6 6 .8.9.3 5.8-3.2 8.8-6.2 1.9-1.9 2.1-2.7 1.3-4.3-.6-1-1.2-3.6-1.3-5.6-.2-2-.7-5.4-1.1-7.5-.4-2.3-.2-5.5.5-8.2.9-3.3 1-4.8.1-5.8-.7-1-.8-2.9-.3-5.9.5-2.4.7-5.4.6-6.6-1-6-1-10.9-.1-12.9.7-1.7.6-2.9-.8-4.9-1.3-2.1-1.7-4.6-1.6-11.2.2-10.1-1.1-14.5-4.8-17.2-1.9-1.3-3.2-3.5-4-6.7-2-7.5-2.9-9.3-5-9.3-1.1 0-3.2-1-4.8-2.3-1.5-1.3-5.8-3.1-9.5-4.1-8.9-2.4-10-3.3-8.9-7.1.4-1.7.6-4.4.4-6-.8-6.1-.9-14.1-.2-16 .4-1.4 0-2.8-1.2-4.4-2.3-2.8-2.4-5.4-.4-8.5 1.8-2.7.7-6.9-2-8-2-.7-1.6-5 .5-5.2.8-.1 1.9-.2 2.4-.3.5 0 .4-.7-.1-1.4-1.1-1.4-1-18.8.1-20.5 1.4-2.2 1.4-8.1 0-10.7-.8-1.5-1.6-5.4-1.8-8.7-.4-5.6.2-8.3 3.4-14.8 1.5-3.2 3.6-2.1 6.3 3.4 2.7 5.5 3.3 8.6 2 10-1.1 1.1-1.2 3.7-.2 6.4.6 1.5 1.2 5.8 1.4 9.7.6 9.1 1.5 14.4 2.6 15.1 1.3.8 1.1 8.1-.3 10.4-1 1.6-1 2.5.4 4.7 1.3 2.3 1.4 3.1.3 4.6-1.4 1.9-1.8 14.4-.4 15.3 1.3.8-.2 9.7-1.9 11.6-1.4 1.6-1.3 2 .4 3.9 1 1.2 1.8 2.3 1.7 2.5-1.8 2.8 4.1 5.2 11.9 4.8 6.5-.4 8.2-1.3 10.2-5.3 1.7-3.4 1.5-17.4-.3-19.5-1.7-2.1-.7-4.6 1.9-4.6 1.5 0 2-.7 2.1-2.8 0-5.5 0-9.2-.1-10.5-.2-4.6 2.1-14.3 3.6-15.4 1.8-1.3 1.8-1.4-.3-1.9-2.5-.7-3-2.9-2.7-11 .2-4.4.8-6.3 2.2-7.5 1.7-1.4 1.8-1.8.6-4-.7-1.3-1.3-3.3-1.4-4.3 0-1-.7-2.4-1.6-3.1-1.2-.8-1.7-2.9-1.8-7.1-.1-6.1-2-9.9-8.9-17.8-1.3-1.5-3-4.5-3.6-6.6-.8-2.7-1.7-3.8-2.9-3.8-.9.1-4-1.3-6.7-3-5.9-3.6-11.2-5-18-4.5-2.9.2-6.5-.3-8.8-1.2-3.9-1.6-5.2-1.4-5.2.8 0 1.4-21.5 1.1-22.9-.4-1.5-1.4-6-1.1-8.2.6-2.5 1.9-5.5 1.9-8 0-1.2-.9-3.2-1.2-5.6-.8-5.1.8-13-2.1-18.3-6.7-3.4-2.9-5.8-4-10.7-5-8.8-1.6-14.7-2-18.6-1zm-5.7 39.6c2.2.4 4.9.7 6 .6 4.4-.5 22.6-.2 23.5.3 1.6 1-.9 4.7-2.6 4.1-.9-.3-2.8.1-4.4.9-2.1 1.1-7.1 1.7-16.7 2-7.6.2-14.5.4-15.3.5-.8 0-4.8-.1-8.7-.4-5.4-.2-7.6 0-8.4 1.1-1 1.1-1.4 1.1-2.8-.1-1.8-1.7-5.5-2-11.3-1-2.8.5-4.6.1-7.7-1.8-2.2-1.3-3.7-2.8-3.3-3.4 1.6-2.2 6.2-3.3 11.6-2.7 3.4.4 6.7.1 8.5-.7 2.3-.9 3.7-.9 6.5.1 1.9.7 3.3 1.6 3.1 1.9-.7 1.2 4.9-.2 6.5-1.6 1.6-1.4 8.9-2.3 10.5-1.3.6.4 2.8 1 5 1.5zm-103 1.4c.3.5.1 1-.4 1-.6 0-1.1-.5-1.1-1 0-.6.2-1 .4-1 .3 0 .8.4 1.1 1zm172.9.9c.8.7 2.6.6 5.5-.1 3.5-.9 4.5-.8 5.1.3 2 3.1-2.8 5.5-13 6.6-2.5.3-6 1.1-7.9 1.9-4.8 2-7 1.7-8.3-1-1.5-3.3-3.4-3.9-7.1-2.1-1.6.8-4 1.5-5.3 1.5-3.8 0-7.3-7-4.1-8.4 2-1 33.7.2 35.1 1.3zM370 126.4c0 .8-.4 1.8-1 2.1-.5.3-1-.3-1-1.4 0-1.2.5-2.1 1-2.1.6 0 1 .6 1 1.4zm113.1 15c18-.8 22.3-.7 25.2.8 1.2.6 2.9.3 5.2-.8 2-.9 4.5-1.4 5.9-1 2.5.6 14.3 1.4 29.5 2 6.4.3 9.6.8 10.2 1.7 1.4 2.3-.3 2.8-11.1 3-11.6.2-13 .5-13 2.5 0 1-.8 1.3-2.7 1-8.8-1.5-20.5-1.6-23.3-.2-1.9.9-3.2 1.1-3.6.4-.3-.5-1.4-.8-2.4-.5-.9.2-2.5 0-3.4-.5-2.7-1.5-27.5-2.6-39.1-1.7-2.2.1-6.8-.1-10.2-.5-4.5-.6-6.3-.5-6.3.3 0 1.4-7.4 1.5-10 .1-1.1-.6-1.7-1.7-1.4-2.5.4-.9.1-1.5-.7-1.5-1 0-1-.3-.2-1.1 1.5-1.5 24.8-1.5 28.4-.1 2.1.8 3.2.7 5.5-.8 1.8-1.2 3.2-1.6 3.9-1 .7.6 6.4.7 13.6.4zm-75.4 21.2c-.3.3-1.2.4-1.9.1-.8-.3-.5-.6.6-.6 1.1-.1 1.7.2 1.3.5zm.3 9.8c0 1.1-1.9 1.5-2.5.6-.3-.5.1-1 .9-1 .9 0 1.6.2 1.6.4zm79.7 3.8c2.1-.5 5.4-.5 7.3 0 1.9.4 6.9.7 11 .6 4.1-.1 12.7.2 19 .7 6.3.4 12.4.8 13.5.7 1.1-.1 4.9-.4 8.5-.7 6.9-.6 18.1 1.3 18.7 3.1.2.5-1.5 1.8-3.7 2.8-3.1 1.4-5.7 1.6-11.3 1.2-3.9-.2-7.6-.5-8.2-.4-.5 0-8.1.2-16.7.4-13.3.3-15.9.1-17.3-1.2-1.1-1.1-1.9-1.3-2.8-.6-.7.5-3.4 1.2-6.2 1.6-2.7.3-7.7 1-10.9 1.6-3.2.5-6.4.6-7 .2-.6-.4-9.4-.8-19.6-.9-31.7-.5-32.5-.5-32.8-3-.6-4.2 2.5-5.8 11.3-5.7 9.2.1 14.1.8 16.1 2.5.8.6 1.4.7 1.4.2 0-.9 2.1-1.1 10.9-1.3 1.9-.1 3.8.5 4.2 1.2.5.8.9.9.9.2 0-1.9 6.2-4.4 8.2-3.3 1 .5 3.3.6 5.5.1zm57.4 34.8c6 .8 9.8.8 12.3.2 4-1.1 6.6.3 6.6 3.7 0 2.8-1.2 3.3-3.3 1.4-1.9-1.7-2-1.7-3.4.4-.9 1.3-2.4 2.3-3.5 2.3s-1.6.4-1.2 1.1c.4.8-3.9.9-15.1.5-8.7-.4-16.1-.8-16.4-1.1-.4-.2-2.9.1-5.6.6-5.4 1-69.4 1.7-71 .7-.6-.3-1.9-.3-3-.1-3.8.8-6.7.3-9.6-1.8-1.6-1.1-2.9-2.5-2.9-3 0-1.7 5.4-3.1 10.1-2.6 2.6.3 5 .2 5.5-.2 1.7-1.5 16.2-3.4 20.8-2.7 7 1.1 63.1.5 64.2-.7.6-.6 3.2-.4 15.5 1.3zm-101.5 37.3c.4.4 1.8.7 3 .7 1.3 0 2.6.4 2.9 1 .3.5 1.9 1 3.4 1s3.3.6 4 1.2c1 1.1 1.6.8 3-1 1.5-2 2.6-2.3 8.2-2.3h18.4c6.6-.1 17.3.2 23.7.6 9.1.6 12.1.5 13.3-.5 2.4-2 16.1-1.4 20.3.9 1.1.6 2.3.7 2.7.3.4-.4.5.5.1 2-.6 2.6-.5 2.7 1.8 1.8 1.3-.5 2.6-.6 2.9-.3.3.3 3.1-.7 6.3-2.3 5.2-2.5 5.9-2.6 8.3-1.3 1.4.8 2.8 2.5 2.9 3.8.2 1.4 0 2.1-.6 1.7-.6-.4-1.4-.1-1.7.4-1.7 2.8-6.7 3.4-30.7 3.4-18.3.1-25 .4-25.9 1.3-1.7 1.7-3.8 1.6-7.1-.1-1.8-1-2.9-1.1-3.7-.3-.7.7-2.7.7-6.6-.2-5.7-1.3-7.5-.9-7.5 1.5 0 1.8-1.6 1.8-2.3.1-.4-1-3.6-1.4-11.8-1.7-10.9-.3-13-.3-20.9 0-1.9.1-5.3.1-7.5.1-2.2-.1-4.9-.1-6-.1-4.6.1-8.7-1.3-9.5-3.4-.9-2.4.6-5.9 2.3-5.3.7.2 1.7-.3 2.2-1 1.8-2.4 10.3-3.8 12.1-2zM371 263c0 .5-.5 1-1.1 1-.5 0-.7-.5-.4-1 .3-.6.8-1 1.1-1 .2 0 .4.4.4 1zm62.3 24.6c2.6 1.4 5.1 1.6 14.2 1.1 8.1-.4 11.6-.2 13.5.8 1.6.9 3.2 1 4.8.4 3-1.1 16.3-1.1 18.1 0 1.6 1 8.4-.4 8.9-1.8.2-.6 1.3-.5 2.7.5 1.8 1.2 4.8 1.4 14.1 1.1 10.8-.3 21.5.4 27.2 1.8 1.5.4 2.2.1 2.2-1 0-2.1 1.3-1.9 2.7.4 1.2 1.9 1.3 1.9 4.7.2 1.8-1 4.5-1.7 5.7-1.5 1.3.1 4.3.3 6.7.3 5.9.1 9.5 3.7 8.8 8.5-.3 1.8-.8 4-1.2 4.9-.7 1.9-4 2.3-4.6.6-.4-1.1-8.1 2.5-11.6 5.4-1.9 1.5-59.9 2.2-61.8.6-.8-.6-1.4-.9-1.4-.5 0 .3-1.1.1-2.4-.4-1.9-.7-3-.5-4.8.9-1.3 1-3.2 1.7-4.3 1.5-3.5-.6-9.9-.7-13-.2-1.6.3-5.5-.1-8.7-.8-3.2-.8-8.4-1.3-11.6-1.2-5.1.1-6.2-.2-10.3-3.3-2.5-1.9-5.4-3.9-6.3-4.4-.9-.6-1.9-2.6-2.2-4.6-.5-3-.1-4 2.7-7.1 1.9-1.9 3.5-3.6 3.7-3.7.2 0 1.7.6 3.5 1.5zM573 307c0 .5-.4 1-1 1-.5 0-1-.5-1-1 0-.6.5-1 1-1 .6 0 1 .4 1 1zm-206 9c0 .5-.4 1-1 1-.5 0-1-.5-1-1 0-.6.5-1 1-1 .6 0 1 .4 1 1zm67 14c0 .5-.4 1-1 1-.5 0-1-.5-1-1 0-.6.5-1 1-1 .6 0 1 .4 1 1zM175.3 67.1c-1.3.4-2.3 1.3-2.3 1.9 0 .6-1.1 1.5-2.5 2-3.5 1.3-5 5.6-3 8.6 1.4 2.2 1.4 2.8-1 7.4-1.4 2.7-3.2 5-4 5-.8 0-2.5 1.2-3.8 2.6-2.4 2.5-2.5 2.6-5 .9-2.6-1.7-6.7-1.3-6.7.6 0 .5-.6.9-1.4.9-2.8 0-4.4-4.5-4.8-13.6-.3-4.9-.9-9.8-1.5-10.8-1.1-2-11.1-5.8-11.8-4.5-.3.4-1.9 1-3.5 1.4-1.7.4-3.7 1.3-4.5 2.2-1.7 1.7-2 7.9-.5 11.9.6 1.5.8 3.5.4 4.3-.4.9-.8 2.3-.8 3.1-.1.8-1.2 1.7-2.6 1.8-1.4.2-3.4 1.2-4.6 2.3-1.7 1.6-2.7 1.8-6.7 1-2.6-.4-5.4-1.4-6.3-2.1C96 91.9 94 87.4 94 83.8c0-5.7-3.5-14.1-6.4-15.6-3.4-1.7-6.7-.1-5.9 2.8.3 1.1 0 2-.6 2s-1.1-.5-1.1-1c0-2-3.9-.9-6.9 1.9-2.8 2.7-3.1 3.5-3.2 9.8-.3 13 .1 16.6 2.3 21.1 2.8 5.5 10.8 12.8 15.1 13.7 1.7.4 3.9 1.4 4.8 2.1 2.4 2.1 11.5 3 13.5 1.4 1.3-1.2 1.7-1.1 2.5.1 1.5 2.4.6 6.3-1.6 6.7-1.1.2-2.7 1-3.6 1.8-.8.7-3.2 1.3-5.4 1.2-2.9-.1-4.3.4-5.7 2.1-1 1.3-1.8 2.9-1.8 3.6 0 .7-1.1 1.6-2.5 1.9-3.2.8-7.3 4.3-9.1 7.8-.9 1.8-1.4 6-1.4 12.2 0 9.6-.1 10-4.4 13-1.9 1.3-2.3 5.4-1.6 15.6.3 4.8-.5 9.1-2.3 12.9-1 1.9-.8 2.5.7 3.7 1.4.9 1.6 1.7.9 2.6-1.8 2.3-2.1 6.9-.7 12.2 2 7.5 1.8 16.3-.3 17.5-1.5.8-1.5 1.3-.5 3.6 2.6 5.6 3 14.4 1.5 30-1.1 11-1 18.7.2 25.2.6 3.6.5 4.3-.8 4.3-2.6 0-2.8 1.7-.8 5.4 1.7 2.9 1.9 5 1.7 13.3-.2 5.4-.8 11.2-1.3 12.8-1.3 3.9 0 7.3 3.1 8.5 1.4.5 7.2.7 12.8.5 6.5-.3 12.2 0 15.3.8 4.3 1.1 6.2 1 13.5-.5 4.7-1 11.1-1.7 14.2-1.6 4.9.1 6-.2 7.7-2.3 1.7-2.1 2.3-2.3 4.8-1.3 2.6.9 2.9.8 3-.9.3-2.8 1-3.2 3.7-1.9 1.5.7 2.7.7 3.3.1.6-.6 4.1-1.1 7.9-1.3 3.8-.1 7.4-.5 7.9-.8.6-.3 2.6-.9 4.6-1.2 2-.3 4.3-.8 5.2-1.1.8-.4 2.4-.2 3.5.4 1.6.8 2.1.7 2.6-.5.4-.9 1.2-1.4 2.1-1 .8.3 2.1.9 2.9 1.2.8.3 2.5-.7 4-2.3 2.3-2.4 2.7-2.6 4.1-1.2.8.8 1.6 2.8 1.8 4.5.6 5 3 8.9 5.7 9.2 1.4.2 5.1 1.5 8.2 2.9l5.8 2.6 3.7-2.6c2.1-1.5 4.4-3.6 5.2-4.9 1.6-2.5 1.6-11.7 0-16.5-1.1-3.5-.8-7.8.9-11 .7-1.2.8-3.3.3-5.5-.8-3.4-.5-14.9.4-17.6.3-.7.9-1.1 1.4-.8.5.4 2.2.1 3.8-.5 1.5-.7 6.9-1.5 11.8-1.9 7.7-.6 9.7-.4 14 1.2 2.7 1.1 5.7 1.7 6.6 1.5 1.2-.3 2.1.4 2.9 2.4.7 1.6 1.6 2.9 2 2.9 1.4 0 3.2 5.8 3.2 10.2-.1 5.9-2.1 17.5-3.6 21.3-1.2 2.8-1.1 3.4 1 6 1.3 1.7 2.7 4.4 3 6.2.3 1.8 1.2 3.7 1.8 4.2 1.8 1.5 6.1 1.8 5.9.4-.3-1.4 2.4-2.5 3.2-1.3 1.7 2.8 12.2-.7 12.9-4.3.3-1.2.8-6.3 1-11.2.3-5 .6-9.9.7-11 .1-1.1-.2-5.6-.6-10.1-.5-5-.4-8.8.2-9.9 1.5-2.6-.2-8-4.7-14.7-2.1-3.2-4.4-7.4-5-9.3-1.2-3.7-2.3-4.7-5.4-5.1-5.3-.7-9.3-1.8-11.2-3.1-1.9-1.2-11.7-3.4-22.6-5-3.4-.4-3.8-.3-3.8 1.6 0 2.7-2.1 2.7-3.8 0-.8-1.2-1.9-1.8-2.9-1.5-.9.4-2.8-.7-5.1-3-3.2-3.2-3.4-3.7-1.9-4.5.9-.6 4.3-.8 7.4-.5 3.2.2 6.2.1 6.8-.4 1.4-1.1 15.8-6 17.8-6 .9 0 1.7-.4 1.7-1 0-.5 1.5-2.7 3.3-4.7 1.8-2.1 3.8-5.1 4.5-6.6.7-1.5 3.2-5 5.7-7.6 4.4-4.7 4.7-4.9 8.1-3.9 2 .5 6.6.8 10.3.5 9.8-.6 10.8-.1 11 7 .1 3.2.3 6.7.4 7.8.1 1.1-.5 3.7-1.2 5.8-1.1 3.3-1.1 4.5.3 8.1.9 2.4 1.4 5 1 6-.3.9-.1 2.3.6 3.1.6.8.9 2.3.6 3.3-.4 1.1-.2 3.1.5 4.5.9 2 .7 3.3-.9 7.1-1.2 2.5-1.7 4.8-1.3 5.1 1.5.9 1.9 9.8.7 14-.7 2.3-1 5-.6 6.1.4 1 .4 2.8 0 3.8-.3 1.1-.3 3.7 0 5.9.4 2.1.5 6.7.3 10.1-.6 6.4 1.1 22.5 2.5 23.7 1.3 1.3 12.7 3.2 15.3 2.6 1.4-.4 3.7-1.7 5.2-3.1l2.6-2.4-.3-21c-.2-15.7.1-21.4 1-22.7.8-1.1 1-2.3.4-3.4-.5-.9-1.3-3-1.9-4.8-.8-2.7-.7-3.2 1.1-3.7 1.6-.4 1.9-.8 1.1-1.8-.6-.7-1.4-2.4-1.8-3.8-.4-1.4-1.4-3.2-2.2-4.1-1.2-1.5-1.2-1.9.2-3.3 1-.9 1.8-3.3 2-5.4.1-2 .7-5 1.4-6.6.9-2.3.9-3.3-.4-5.2-1-1.6-1.2-2.4-.4-2.4.7 0 .5-.8-.6-2-1.6-1.8-1.6-2.2-.1-6 .9-2.2 1.3-4 1-4-.3 0-.1-.8.5-1.7.7-1.3.5-2.3-.5-3.5-1.4-1.4-1.4-2 0-4.6.9-1.7 2-3.3 2.5-3.6.5-.3.3-2.1-.4-4.1-1.2-3.8-1.2-9.3.1-13.4.6-2.1.5-2.3-1.2-1.7-1 .5-2.8 1.1-3.9 1.4-1.7.4-1.6.2.5-1.6s2.3-2.4 1.3-4c-1.3-2.2-.6-3.2 3.2-4.6 1.9-.7 1.8-.8-.8-2.2-2.6-1.4-2.7-1.6-1.2-4.4 2.2-4.2 2-8.7-.5-9.5-2.2-.7-2.5-2.6-.9-5.7 1-1.8.8-2.4-1.2-3.9l-2.4-1.8 1.9-3.5c1.6-3 1.7-4 .7-6.2-.6-1.4-1.9-2.8-2.9-3.1-1.6-.4-4.3-4.9-4.8-7.9-.1-.6-1.4-3-2.9-5.2s-2.4-4.6-2-5.1c.7-1.3-.2-1.3-3-.2-1.4.6-3.6 0-7.5-2.1-4.5-2.4-7.1-3-14-3.4-4.6-.3-8.6-.7-8.8-.9-.2-.2.3-1.3 1-2.4 1.2-2 7.3-4.8 9.2-4.3 5.9 1.7 19.5-.9 24.4-4.6 2-1.6 5-3.3 6.6-3.8 2.6-.8 3.2-1.8 4.9-7.4 1-3.6 2.2-7.7 2.7-9.2.6-2 .3-3.7-.9-6.2-1.8-3.4-1.8-3.4.8-5.4l2.6-1.9-2.8-5.5c-1.5-3-2.7-6.1-2.5-6.9.2-1-.6-1.4-2.9-1.3-1.9.1-3.3-.3-3.3-1s-1.6-1-4.6-.7c-3.5.2-5.3 1-7.5 3.4-1.6 1.6-2.9 3.5-3 4.1-.1 1.2-.5 10.1-.8 15l-.1 2.8-7.9-.5c-6.6-.5-8.6-.2-11.7 1.4-5.4 2.7-7.8 2.4-10.9-1.3l-2.7-3.2 2.6-1.3c3.1-1.6 3.1-1.7.5-4.2l-2.1-1.9 2.1-.7c3.2-1 2.7-4.4-1-5.7-1.8-.6-2.8-1.6-2.5-2.3.8-2.2-2.3-5.5-5.2-5.5-5.9 0-11.5 2.6-13.3 6-1.6 2.8-1.6 3.6-.4 5.3 1 1.4 1.1 2.7.4 4.4-.5 1.3-.9 3.5-.9 4.8 0 1.9-1 2.8-4.6 4.4-6.6 2.9-12.6 4.4-13.3 3.3-.3-.5-1.8-1.2-3.3-1.6-1.6-.3-2.8-1.1-2.8-1.6 0-.6-.6-1-1.2-1-.7 0-2.6-1-4.2-2.3-2.6-2.1-2.9-2.9-3-8.9-.1-6.3-.3-6.9-3.5-9.7-1.9-1.7-4.4-3.2-5.5-3.2-6.6-.5-12.1 1.2-13.7 4.2-.5 1-.6 3.3-.2 5.1.9 4.5.9 9.1-.1 16.2-.8 5.8-.8 6.1 1.9 8.4 1.7 1.4 3.6 2.2 4.7 1.9 1.6-.5 1.7-.3.7.9-.6.8-1.8 1.4-2.7 1.4-1.3 0-1.2.3.3 2 1.4 1.5 1.5 2.3.6 3.4-1 1.1-.6 1.8 1.7 3.4 1.5 1.2 4.1 2.4 5.8 2.8 1.6.4 4.5 1.5 6.4 2.6 2.4 1.3 5.6 1.8 10.7 1.8 8 0 10.3.6 10.3 2.6 0 2.6-7.6 3-17.8.9-2.2-.5-3.8-.3-5 .7-1.3 1.1-4.3 1.4-12 1.3-5.7-.1-10.5.2-10.8.6-.2.4-1.7.1-3.2-.7-3.2-1.7-9-1.8-12.9-.3-4.2 1.7-9.4 1.2-11.7-1-1.6-1.7-1.7-2.2-.6-3.6.8-.9 2.2-1.4 3.3-1.1 2.7.7 5.7-.7 9.3-4.1 7.3-7.1 10.2-13.8 10.9-25.3.3-4.1.8-9.2 1.1-11.2.7-4.5-2.4-10.7-6.4-13-3-1.7-8.6-2.1-11.9-.7zM89.5 78c.3.5.1 1-.4 1-.6 0-1.1-.5-1.1-1 0-.6.2-1 .4-1 .3 0 .8.4 1.1 1zM279 95c0 .5-.5 1-1.1 1-.5 0-.7-.5-.4-1 .3-.6.8-1 1.1-1 .2 0 .4.4.4 1zm-127.6 61.5c1.5 1.1 1.6 1.5.5 1.6-.8 0-2.4.2-3.6.5-1.5.2-2.3-.1-2.3-.9 0-3 2.4-3.5 5.4-1.2zm-11.4 2.7c0 1.3-5.3.5-5.7-.9-.2-.6.4-1.3 1.4-1.5 1.9-.5 4.3.9 4.3 2.4zm-6.4 23.1c.4.4 2 .7 3.6.7 1.5 0 2.8.5 2.8 1 0 .6 1.5.4 3.7-.5 3.2-1.4 3.8-1.4 5.3 0 1.4 1.3 3.1 1.4 8.4.9 5.9-.6 6.9-.4 8.9 1.4 2.1 1.9 2.5 1.9 6.2.6 4.8-1.7 9.4-2.5 23.7-3.9 5.5-.6 7.3-.4 9.3.9 1.4.9 3.1 1.3 3.8.9 1.8-1.1 18-1.2 19.4 0 1.4 1.1 9.4.4 13.4-1.1 1.5-.6 2.9-.9 3.2-.6 1.5 1.6 30.4 2.2 41.2.9 4.5-.5 11.8-1.2 18.4-1.6 5.8-.3 5.2 5.5-.9 9-3.3 1.8-4.6 2.1-6.8 1.3-3.4-1.3-4.7-1.4-22.2-1.6-8-.1-14.9-.4-15.5-.8-2.4-1.4-8.6-1.7-12.8-.4-2.9.9-5 1-6.1.4-1-.5-5.2-.9-9.4-.8-23.3.4-27.1.3-30.1-1-5.1-2.1-17.7-1.6-23.3 1-3.7 1.6-5.8 1.9-9.5 1.4-2.6-.3-5.2-.8-5.6-1.1-1.3-.8-33.1-.1-51.2 1.1-11.9.7-16.6-.5-14.2-3.8 1.4-1.8 2.5-2 10.2-1.6 2.7.2 12.6-2 14.5-3.1 1.7-1 10.5-.7 11.6.4zM100 210c0 .5-.4 1-.9 1-.6 0-1.3-.5-1.6-1-.3-.6.1-1 .9-1 .9 0 1.6.4 1.6 1zm5 3.5c3.6.1 7.6.6 9 1.2 1.4.6 7 .9 12.5.8 5.5-.2 31.7-.4 58.3-.6 35.1-.1 48.6.1 49.5 1 1.6 1.6 3.5 1.4 4.6-.6.8-1.6 1.3-1.6 5.8-.1l4.8 1.5-3 1.3c-1.6.7-5.7 1.4-9 1.6-3.3.3-7.7 1-9.7 1.6-2 .6-5.6.8-7.9.5-2.7-.4-5.2-.1-6.9.8-2.5 1.3-2.8 1.2-4-1-1.8-3.3-2.7-3.5-9-1.8-3 .9-6.2 1.4-7 1.3-6-.6-26.8-1.1-38-.8-4.1.1-8.6-.1-9.9-.3-1.4-.3-3.8-.3-5.5.1-2.2.4-3.5.2-4.3-.9-1.1-1.4-1.2-1.4-1.3 0 0 1.4-1.8 1.6-12.7 1.6-7.1.1-15.4.4-18.5.7-5.4.6-5.8.5-7.6-2.1-3.8-5.6-3.3-8 1.3-6.6 1.1.3 4.9.7 8.5.8zM242.5 240c-.3.5-1 1-1.6 1-.5 0-.9-.5-.9-1 0-.6.7-1 1.6-1 .8 0 1.2.4.9 1zm-87.4 6.6c1.5-.7 3.2-1 4-.5.8.4 4.1 1.1 7.2 1.4 4.8.6 6.2.4 7.8-1.1 1.5-1.3 2.2-1.5 3.1-.6.7.7 2.2 1.2 3.4 1.2 1.3 0 2.5.4 2.8.9.3.4 2.3.4 4.4-.2 2.9-.8 5.1-.7 8.5.2 5.4 1.6 8 4 7.5 7.2-.3 2-1.2 2.4-7.8 3.5-4.1.7-11.7 1.5-16.9 1.8-5.2.4-9.9 1-10.5 1.5-.6.6-4.3 1.7-8.1 2.6-3.9.8-8.8 2.2-10.9 2.9-2.2.7-8.2 1.4-13.3 1.5-6.1.1-11.6.9-15.6 2.1-3.4 1.1-7.2 2-8.3 2-1.2 0-4.1.9-6.5 2-2.4 1.1-5.1 2-6 2-2.4 0-4.9-4.3-5.4-9.2-1.6-16.1-1.6-17.4.4-19.7 1.8-2 3-2.3 10.5-2.4 4.8-.1 8.7.2 8.9.7.3 1 15.9 1.4 21.2.5 2.2-.4 4.4-.3 5 .2 2.1 2.1 8.5.7 8.5-2 0-1.3.4-1.1 1.8.6 1.5 2.1 1.9 2.2 4.3.9zm-74.6-.6c.4.6-.5 1-2 1s-2.4-.4-2-1c.3-.6 1.2-1 2-1s1.7.4 2 1zm241 23.9c-.3 1.2-1.1 1.9-1.6 1.6-.5-.4-.5-1.4.2-2.6 1.3-2.6 2.3-1.8 1.4 1zm6.1 17.3c-.1 2.8-1.8 4.5-4.9 4.7-.9.1 1-3.7 3.1-6.2 2-2.2 1.9-2.2 1.8 1.5zm-128.6-.3c5 2.6 4.8 5.9-.3 7.7-2.1.8-5.5 1.4-7.5 1.5-2 .1-5.3 1.1-7.3 2.2-2.6 1.3-4.9 1.8-7.5 1.5-2.4-.3-5.7.2-8.4 1.2-4.3 1.7-8.2 2.5-16.2 3.5-2.1.2-4.5.8-5.5 1.3-1 .6-4.5 1.5-7.8 2.2-3.3.6-8.7 2.1-12 3.2-3.3 1.1-8.2 1.9-10.8 1.9-2.7-.1-6 .5-7.5 1.4-1.5.8-4 1.9-5.5 2.5-1.6.5-2.5 1.4-2.2 2 .9 1.5 0 1.2-2.3-.8-2.4-2.1-5.4-10-4.1-10.8.5-.3.9-1.8.9-3.5 0-4.2 3.3-7.1 6.8-6.2 5.3 1.5 33.2.4 36.7-1.4 3.3-1.7 10.8-3.2 13.6-2.6 1.7.3 4.5-.6 8.5-2.6 3.9-2.2 6.6-3 8.4-2.6 6.3 1.3 13.9.8 17.2-1.4 4.1-2.6 8.3-2.7 12.8-.2zm81.5 5.1c-.3.5-1 1-1.6 1-.5 0-.9-.5-.9-1 0-.6.7-1 1.6-1 .8 0 1.2.4.9 1zm4 32.1c-1 1.5-2.5 1-1.9-.6.4-.8 1-1.2 1.5-.9.5.3.7 1 .4 1.5zm8.3 1.7c.2.7-.2 1-1.2.6-.9-.3-1.6-1.1-1.6-1.6 0-1.3 2.3-.5 2.8 1zm33.6-.1c.9 2.2-1.2 4.3-2.3 2.4-1-1.5-.4-4.1.9-4.1.4 0 1.1.8 1.4 1.7z"/><path d="M71 164.5c0 .8.5 1.5 1 1.5.6 0 1-.7 1-1.5s-.4-1.5-1-1.5c-.5 0-1 .7-1 1.5zM227.7 355.8c-1.1.2-1.6 1-1.3 1.8.8 2.1-1.1 2.6-3.7.9-2.4-1.5-4-1.4-8.3.7-1.5.7-3.1.5-5.9-.6-3.7-1.6-7.1-1.2-12.5 1.4-2 .9-4 .2-4-1.6 0-.8-1-1.4-2.5-1.4-1.4 0-2.5.4-2.5 1 0 .5-1.6 1.6-3.6 2.5-3.2 1.3-4 1.3-8.6-.5-2.8-1.1-5.5-2.5-5.9-3.1-.5-.9-1.3-.7-3 .5-1.3.9-3.9 1.6-5.9 1.6-1.9 0-4.1.4-4.9.9-1 .7-1.8.5-2.5-.5-1.6-2.1-5.6-2.5-8.9-.9-2.5 1.3-3.2 1.2-5.3-.1-2.3-1.6-2.4-1.5-2.4.7v2.2l-2.5-2.3c-2-1.9-2.7-2.1-3.9-1.1-.8.7-2 1-2.5.7-.6-.4-1.5.3-2.1 1.5l-1.2 2.1-2.4-2.3c-2.2-2.1-2.5-2.1-4.2-.6-1 1-2.8 1.7-4 1.7-1.5 0-2.2.6-2.2 2 0 1.1-.4 2.8-.9 3.8-2 4-3.2 9.5-2.6 12.2 1 4.6 6.2 9 10.6 9 2.1 0 4.1.5 4.4 1.1.5.7 3.2.8 8.4.3 8.1-.8 9.1-.8 16.1.2 4.8.7 19.9.9 26.5.4 2.2-.2 7 .1 10.8.5 5.9.7 6.7.6 6.7-.9 0-2.1.7-2 5.7.4 4.7 2.2 5.2 3.1 6.7 12.5 1.1 6.4 1 7.2-.8 9.7-1.9 2.7-1.9 2.7.7 8.7 2.1 4.9 2.3 6 1.1 6.5-.8.3-1.4 1.2-1.4 2 0 2.7-5.1 5.7-8.3 5-1.6-.3-6.6-.6-11-.6-4.5 0-8.9-.4-9.9-.9-1.2-.7-2.5-.6-4 .2-1.2.7-7.7 1.3-15.2 1.4-7.2.1-15.8.7-19.1 1.4-3.3.6-6.1 1.1-6.3 1.1-.2 0-2.6 2.4-5.3 5.2-7.1 7.5-11.1 13.8-10.4 16.3 1.7 5.4 1.6 6-1.5 7.7-1.7 1-3.1 2.6-3.1 3.8-.1 1.1-.2 2.6-.3 3.2-.2.7.3 2.6.9 4.3.6 1.6 1 4.4.8 6.1-.3 2.9.2 3.7 5.6 7.9 3.3 2.6 6.2 5.3 6.5 6.1.3.8 2 1.4 4 1.4 2.9 0 3.7.4 4.2 2.4 1 4 5.1 6.1 12.4 6.3 3.6.1 9.5.3 13.1.6 3.6.2 8.7-.2 11.3-.8 2.6-.7 4.9-.9 5.1-.5.4.7 36 .3 41.1-.6 2.4-.3 3.4-1.1 3.8-2.9.8-3.2 2.4-3.2 3.2-.1.3 1.4 1.3 3.1 2.3 4 2.3 2.1 10 2.6 15.1.9 3-1 6.8-1.3 12.4-1 4.5.3 11.8 0 16.2-.6 7.7-1 8.3-.9 11.8 1.2 4.5 2.8 7.8 2.5 8.7-.9.7-2.4.7-2.4 1.4-.4.4 1.2 1.8 2.7 3.1 3.4 1.3.8 2.4 1.6 2.4 2 0 .3.9 1.6 2.1 2.9 2 2.1 2.2 2.2 4.1.5 1.6-1.6 2.1-1.6 2.8-.4.6.8 1 2 1 2.6 0 .6.9 2.3 2 3.6 1.1 1.4 1.8 3.4 1.6 4.4-.2 1.1-.1 3.7.3 5.9.5 2.7.3 4.9-.6 6.7-1.1 2.4-1.1 3.3.2 6.4 1.1 2.8 1.2 4 .4 5-1.4 1.7-.5 4.4 1.6 4.4 2 0 1.9.8-.4 4.7-1.7 2.7-1.8 3.3-.6 4.3 1.2 1 1.2 1.8-.5 5.1-2.4 4.6-2.5 7.7-.5 9.9 1.2 1.4 1.3 2.3.4 4.9-1.1 3.1-1 3.5 1.7 5.7 1.6 1.3 2.3 2.3 1.7 2.4-.7 0-1.3.5-1.3 1.1 0 .6-.9 2.4-2 4-1.5 2-1.8 3.4-1.2 4.6.4 1 .7 2.8.6 4.1 0 1.2.1 2.2.5 2.2.3 0 1.3.4 2.1 1 1.2.7 1.1 1.2-.5 3-1.5 1.6-1.9 3.5-1.8 9.1.2 8.8 1.6 13.2 4.9 15 2.3 1.2 2.7 1.1 3.9-.5 1.3-1.7 1.5-1.7 3.9 1l2.6 2.9 1.7-2.2c1.3-1.6 2.4-2.1 4.1-1.7 1.5.4 2.2.2 2.2-.7 0-.8.9-2 1.9-2.6 1.8-1.1 1.9-1.5.5-6.5-2.4-9-1.4-17.1 3.1-25.8 1.6-3.1 1.6-4.9.1-11-.4-1.4-.7-4.3-.7-6.5s-.9-6.7-1.9-10c-2.3-7.9-2-20.3.6-24.2 1-1.6 1.7-2.9 1.6-3-.1-.2.5-2 1.3-4.2 1.3-3.8 1.3-4-1.1-5.6-1.3-.8-2.4-2.2-2.4-3 0-.8-.4-1.5-.9-1.5-1.4 0 0-4.1 1.5-4.7 1-.4.9-1.1-.6-3.1-1.1-1.6-2.2-5-2.4-8.2-.9-10.1-2.6-16-4.7-16-.5 0-2.7-1.6-4.7-3.6-2-1.9-7.5-6-12.1-8.9-7.2-4.5-8.8-5.2-10.9-4.4-2.6 1-6.3.3-7.4-1.4-.4-.7-3.3-.6-9.1.3-7.4 1.1-9.9 1.1-19.8-.4-9.7-1.4-12.9-1.5-21.4-.5-14.5 1.7-25.3 1.9-30.9.7-3.2-.7-5.5-.7-6.5-.1-.9.5-3.2.8-5.1.6-6.9-.8-37.1 0-38.7 1-.7.4-2-.2-3-1.3-1.6-1.6-3.1-1.9-8.9-1.9-11.3.1-15.1-2.6-16.1-11.5l-.5-4.4 4.3-.8c4-.7 21.3-1.1 43.4-1.2 4.4 0 9.8 0 12-.1 2.2 0 12.6-.1 23-.1 10.5 0 22.8-.5 27.5-1.1 8.1-.9 15.5-1 35-.4 4.7.1 9-.1 9.5-.4.6-.3 4.6-.6 9-.7 6.2-.1 9.6-.8 15-2.9 8.8-3.5 11.1-5.2 15.5-11 1.9-2.5 4.6-6 5.9-7.6 2.3-2.9 2.3-3.2.8-5.8-1.4-2.4-1.4-3 .2-7.6 1.2-3.7 1.7-8.3 1.6-17.1 0-11.4-.1-12.3-2.7-16.2-2.3-3.5-2.6-4.6-1.8-6.8.9-2.1.7-2.9-.7-4-1-.7-2.1-1.4-2.5-1.4-.4 0-1-1-1.4-2.3-1-3.3-3.3-5.5-6.3-6.2-1.5-.3-3.9-1.6-5.3-2.8-6.3-5.2-15-9.1-16.8-7.3-1.1 1.1-19.1 1.1-36.5 0-4.9-.3-13-.7-18-.8-4.9-.2-9.9-.7-11-1.3-1.1-.5-2.8-.8-3.8-.5zM213 370c0 .5-.4 1-1 1-.5 0-1-.5-1-1 0-.6.5-1 1-1 .6 0 1 .4 1 1zm23 2c0 .5-.2 1-.4 1-.3 0-.8-.5-1.1-1-.3-.6-.1-1 .4-1 .6 0 1.1.4 1.1 1zm-.7 16.1c.5 1.8 1.1 2 5.9 1.5 2.9-.3 9.1-.8 13.8-1.1 4.7-.3 9.4-.7 10.5-.9 1.1-.2 3.1.1 4.5.7s8.6 1.2 16 1.3c19.7.3 20.2.4 21.3 3.6.6 1.9 1.6 2.8 3 2.8 4.3 0 5.1 1.6 2 3.8-1.7 1.2-2.9 3.1-3.1 4.6-.1 2.2.3 2.8 2.8 3.3 3.8.7 3.8 1.8.1 3.8-2.7 1.4-3 1.9-2.9 6.5 0 8.6-5.2 13.2-14.4 12.9-2.4-.1-6.9.5-10.1 1.4-3.5 1.1-11.1 1.9-19.4 2.2-14.5.5-16.8.9-19.6 3.3-1.5 1.3-2 1.4-2.7.3-.5-.9-1.8-1.2-3.6-.8-3.6.6-7-1.3-10.6-6.1-2.9-3.6-3.6-7-1.8-8.8.5-.5.6-2.5.2-4.4-.4-1.9-.6-5.8-.4-8.5.5-8.7.4-9.7-.8-12-.9-1.7-1-2.7-.1-3.7.6-.7 2.2-2.8 3.7-4.6 3-3.7 4.9-4.1 5.7-1.1zm93.7 14.8c0 .6-.4 1.3-1 1.6-.5.3-1-.1-1-.9 0-.9.5-1.6 1-1.6.6 0 1 .4 1 .9zm-13.5 19c-.3 1.2-1.1 2.1-1.6 2.1-1 0-1.2-4.3-.2-5.4 1.2-1.2 2.5 1.1 1.8 3.3zM215 426c0 .5-.5 1-1.1 1-.5 0-.7-.5-.4-1 .3-.6.8-1 1.1-1 .2 0 .4.4.4 1zm10.3 14.3c-.3.5-.9.3-1.4-.4-.4-.7-.5-1.7-.2-2.2.3-.5.9-.3 1.4.4.4.7.5 1.7.2 2.2zm-17.3 4.1c0 .3-.4.8-1 1.1-.5.3-1 .1-1-.4 0-.6.5-1.1 1-1.1.6 0 1 .2 1 .4zm-1.4 6.1c-1.1.8-2.2 1.2-2.5.9-.6-.6 1.9-2.4 3.4-2.4.6.1.1.7-.9 1.5zm96.8 1c.3.8.1 1.5-.3 1.5-.5 0-1.1-.7-1.5-1.5-.3-.8-.1-1.5.3-1.5.5 0 1.1.7 1.5 1.5zM134 494.4c0 .3-.4.8-1 1.1-.5.3-1 .1-1-.4 0-.6.5-1.1 1-1.1.6 0 1 .2 1 .4zm45.1 1.9c-.1 1.2-1.5.9-1.9-.4-.3-.6.1-1 .8-.8.6.3 1.1.8 1.1 1.2zM310 511c0 .5-.4 1-1 1-.5 0-1-.5-1-1 0-.6.5-1 1-1 .6 0 1 .4 1 1zm6.5 40c.3.5.1 1-.4 1-.6 0-1.1-.5-1.1-1 0-.6.2-1 .4-1 .3 0 .8.4 1.1 1zm10.5 5c0 .5-.4 1-1 1-.5 0-1-.5-1-1 0-.6.5-1 1-1 .6 0 1 .4 1 1zm-11.6 41.9c.3.5 0 1.1-.8 1.4-1.5.6-2.6-.1-2.6-1.5 0-1.1 2.7-1 3.4.1zM457.5 360.6c-3.1 1-4.7 1.1-7.2.2-2.3-.9-4.2-.9-7-.1-2.3.7-8 .9-14.4.6-7.3-.4-10.8-.2-11.3.6-.9 1.3-8.9 1.5-13.3.2s-18.6-1.5-25.3-.4c-4.4.7-5.4 1.2-5.2 2.6.2 1.5-.7 2.1-2.9 1.9-1.2-.2-4.6 4.3-5.6 7.3-1.1 3.1-.8 7.5.5 8.5.4.3 1.2 1.8 1.7 3.5.9 2.6 1.6 3.1 5.6 3.5 2.6.3 6.4 1.8 8.7 3.3 3.2 2.1 4.6 2.5 6.5 1.8 1.5-.6 3.4-.4 5.6.5 2.8 1.2 3.5 1.2 5.6-.2 1.4-.9 4-1.4 6.3-1.3 2.3.2 4.7-.3 5.7-1.1 1.3-1.1 1.8-1.1 2.4-.1.6.9 1.4 1 2.7.4 1.9-1 3.5-.9 13.1.1 2.8.3 6.3.2 7.8-.4 2-.8 3.5-.6 6.6 1 2.2 1.2 3.7 2.5 3.3 3.1-.3.6.1 1.8 1 2.8 1.5 1.6 1.5 1.9-.4 3.6-2.4 2.2-2.5 4.9-.5 11l1.6 4.5-4.2 5.5c-2.3 3-4.5 5.5-4.9 5.5-.5 0-1.5.7-2.4 1.5-2.1 2.1-5.7 2.5-8.8.9-3-1.6-9.4-1.9-10.2-.5-.3.5-2.5.7-4.8.5-2.4-.3-8.3-.6-13.2-.9-14.2-.6-14-.5-13.3-7.5l.7-6-3.5-1.4c-1.9-.8-5.4-1.5-7.8-1.5-2.3 0-6.2-.3-8.7-.6-3.7-.5-5-.3-7 1.3-2.3 1.8-2.4 2.3-1.3 5.1.7 1.9.8 4.4.3 6.5-.7 3.2 0 9.9 1.5 13.7.3.9 0 3.3-.9 5.2-1.7 4.3-.8 9.1 2.9 14.5 2.3 3.3 2.3 3.4.4 5.3-1 1-1.9 2.5-1.9 3.2 0 .7-.9 1.8-2 2.5-2.5 1.5-2.7 7.7-.4 11 1.2 1.8 1.4 2.9.5 5.3-.7 2.1-.7 3.7-.1 4.9 1.5 2.7 1.2 9.2-.5 11.4-.8 1-1.2 2.3-.9 2.7.8 1.3 1.5 13.9 1.4 23.9-.6 38.6-.4 47.3 1.6 52.4.3.7-.2 1.6-1 1.9-2 .8-2.1 5.3-.1 9 .8 1.5 1.4 4.3 1.3 6.1-.1 1.8.9 5.4 2.1 7.9 1.2 2.6 2 5.1 1.6 5.7-.3.5.1 1.7.9 2.6.9.8 1.6 2.3 1.6 3.3 0 2.2 8.5 11.1 10.6 11.1.8 0 2.5 1.1 3.7 2.4 1.3 1.3 3.6 2.6 5.2 2.8 2.2.2 3 .8 3 2.3 0 1.8.6 2 5.7 1.7 3.1-.2 6.5.1 7.6.7 2.9 1.6 10.3 2.1 12.5.9 3-1.5 10-1.7 12.8-.3 2.3 1.2 35 3.2 44.4 2.7 1.7-.1 14.5-.2 28.5-.2 36.7.1 37.2 0 40.2-.6 1.5-.3 4.1-.7 5.9-.9 1.7-.3 3.4-.7 3.7-1 .3-.3 1.4.3 2.5 1.2 1.3 1.3 3.3 1.7 6.5 1.6 2.6-.1 9.7-.4 15.7-.6 6.1-.2 11.7-.7 12.5-1 .8-.3 3.1-.7 5-1 1.9-.3 6.2-1.7 9.4-3.2 4.8-2.2 6.4-2.5 7.8-1.6 2.5 1.5 6.3-.5 12.6-6.7 4.1-4 5.2-5.8 6.7-11.7 1-3.9 2.7-8.8 3.8-10.9 1.4-2.9 1.7-5 1.3-8-.8-5.1-.8-6.3-.1-21.1.4-9.1.9-12.1 2-12.8.9-.4 1.2-1.3.9-1.9-1.4-2.2-2-14.1-1-19.3.8-4.6.9-20.1.1-28-.6-5.4-1.5-27.4-1.4-35 0-.6.1-15.1.3-32.3.3-28.3.2-31.4-1.3-31.9-.9-.3-2.5-1.6-3.7-3-1.8-2.1-2.4-2.3-4.9-1.3-1.9.7-3.1.8-3.9 0-1.4-1.4-3.6-1.2-3.6.4 0 .8-1.1 1.3-2.6 1.3-1.9.1-4.6 2-9.8 7-6.6 6.5-13.5 12-13.9 11.2-2.7-5.1-4.7-6.3-4.7-3 0 2.5-1.7 2.7-4.2.5-1.6-1.5-2.5-1.5-7.7-.4-3.3.7-8.4 1.3-11.3 1.4-5.3.2-14.6-.9-15.5-1.8-.3-.3-.1-1.8.5-3.4.7-2 .7-3.3 0-4-.5-.5-1.1-3.9-1.1-7.5-.2-5.6.2-6.9 2.1-9 1.9-2 2.2-3.2 1.7-5.8-.6-3.3-.5-3.4 2.7-3.6 1.8-.1 4.8-.5 6.7-.9 2.9-.6 3.3-.4 2.8 1-.8 2 .6 2.1 2.3.1.9-1 2.3-1.4 4.4-1 1.7.3 4.3.7 5.9.9 1.5.3 4.3-.2 6.2-1 1.9-.8 4.5-1.4 5.7-1.4 4 0 18.1 1 23.5 1.6 4.5.5 5.3.3 6.3-1.5 1.3-2.5 3-2.8 3-.5 0 1.1.6 1.4 2.3.8 2.6-.8 3.5-2 4.2-5.4.3-1.4 1-3.9 1.6-5.5 2-5.5 2.1-8.1.4-9.8-1.4-1.5-1.4-1.9 0-4.6 1.5-3 1.5-3.1-1.4-4.6-3.4-1.7-8.1-2-8.1-.5 0 1.8-3 2.3-4.8.8-4.6-4.1-20.2-5.2-31.5-2.3-1.6.4-3.3.3-4.2-.5-1-.8-3.6-1-8.7-.5-4 .4-9.5.8-12.1 1-2.7.2-5.5.9-6.2 1.5-1 .8-1.4.8-1.7-.1-.3-.9-4.6-1.3-14.4-1.5-7.6-.1-15.1-.7-16.5-1.2-1.5-.6-3.1-.7-4-.1-.8.5-2.5.9-3.7.9-1.6 0-2.6.7-2.9 2-.5 1.9-.7 2-2.4.4-1.3-1.1-4.2-1.7-10.4-2-8.8-.4-12.1.6-15.1 4.5-1 1.3-1.6 1.3-3.9.3-1.5-.7-2.9-2.1-3.2-3.2-.3-1.1-1.3-2-2.2-2.1-2.9-.1-9.6-.9-10.6-1.3-.6-.2-2.9.2-5 1zm-42 13c1.2.5 1.4.9.4 1.4-1.4.9-3.9.2-3.9-1.1 0-1.1 1.2-1.1 3.5-.3zm7 9.4c1.1 1.7-.5 3.2-2.1 1.9-.7-.6-1.1-1.5-.8-2 .7-1.2 2.1-1.1 2.9.1zm-41.5 3c0 .5-.4 1-1 1-.5 0-1-.5-1-1 0-.6.5-1 1-1 .6 0 1 .4 1 1zm137 7c2.2 1.1 4.4 2.8 4.9 3.8s1.2 6.7 1.6 12.7c.3 6.1.8 12.7 1.1 14.7.5 4.4-.6 5.2-8.2 6.3-11.8 1.6-25.2 1.3-34-.6-6.5-1.4-9.1-1.6-10.1-.8-.7.6-1.3.9-1.3.7 0-.3-.5-3-1-5.9-.9-4.7-1.2-14.5-.7-27.2.1-2.6.6-3.7 1.7-3.8 10.4-.7 21.1-.5 24.1.5 2.3.8 4.4.9 6 .4 1.3-.5 3.4-.6 4.7-.3 1.3.3 3.2-.1 4.5-1 2.6-1.8 2-1.9 6.7.5zm-140 28.4c0 .3-.4.8-1 1.1-.5.3-1 .1-1-.4 0-.6.5-1.1 1-1.1.6 0 1 .2 1 .4zm-9.9 21.1c.1 1.7-1.8 1.7-2.5 0-.4-1.1-.1-1.5 1-1.3.8.2 1.5.7 1.5 1.3zm209.9.5c0 .5-.5 1-1.1 1-.5 0-.7-.5-.4-1 .3-.6.8-1 1.1-1 .2 0 .4.4.4 1zm-208 6.4c0 1.1-1.9 1.5-2.5.6-.3-.5.1-1 .9-1 .9 0 1.6.2 1.6.4zm73.5 11.6c5.5 0 6.5 1.5 4.1 6.9-1.3 2.7-1.6 5.6-1.3 10.7.2 4.1-.2 8.5-1 10.7-1.3 3.8-1 11.1.6 13.1.4.6.9 3.1 1 5.5.2 2.4.7 5.4 1.1 6.7.5 1.2.6 2.5.3 2.8-.9.9-1.6 5.7-1.7 12.1-.2 7-.9 8.5-4 8.5-1.2 0-3.3 1.1-4.6 2.5-1.4 1.5-4 2.8-6.2 3.2-2.1.3-5.6 1.9-7.8 3.4-4.6 3.3-5 3.4-5 1.4 0-.8-.1-1.5-.2-1.6-.2 0-5.9-.2-12.8-.5-15.7-.5-18.8-1-19.4-3.2-.8-2.8-.9-33.4-.1-38.3.7-4.5.7-4.6-2.5-5.9l-3.2-1.3 3.4-1.4c3.1-1.2 3.5-1.8 3.2-4.6-1.3-14.8-1.2-26.5.1-28.4 2-2.8 13.2-5 18.3-3.5 9.4 2.6 11.9 2.9 16.3 1.6 2.4-.8 5.7-1.6 7.2-1.8 1.6-.3 3.1-.7 3.4-1 .3-.3 1.8.1 3.4.9 1.5.8 4.9 1.5 7.4 1.5zm64.5-1.4c8.5.1 18 2.2 18 3.9 0 .6-.5 1.6-1.1 2.2-.9.9-.9 1.9.1 4.2.9 2.2.9 3.9.2 5.9-.8 2.4-.7 3.1.9 4 2 1.3 2.6 3.8 1 4.4-.9.3-2.2 5.5-2.3 8.8-.1 2.2 1.1 13.9 1.8 17.9.3 1.8 0 5.5-.7 8.2-1.1 4.3-1.1 5.3.3 7.7.8 1.5 1.4 3.6 1.2 4.7-1.8 9.4-1 13 4.2 18.7 1.9 2.2 4 5 4.6 6.4.6 1.3 1.8 2.4 2.6 2.4.9 0 2.3.7 3.2 1.5.9.8 3.4 1.8 5.6 2.3 2.8.5 4.3 1.5 5.1 3.4.7 1.4 2.5 3 4 3.6 3.6 1.4 15.2 2.5 28.3 2.8 12.9.3 22.2 1.1 23.1 2.1 2.2 2.5 2.9 8.1 1.5 12.5-.9 3.1-1 5.1-.4 6.3.7 1.1.6 2.1-.1 2.8-.6.6-1.1 1.8-1.1 2.8 0 5.1-13.7 13.3-25.5 15.1-9.7 1.5-27.4 1.1-32.4-.6-5.8-2.1-8.5-2-15 .4-5 2-8.4 2.1-12.2.5-1-.4-1.9 0-2.2.9-.7 1.8-3.1 1.2-6-1.3-1.8-1.5-2-1.4-3.8.7-1.5 2-2.1 2.1-4 1.2-2.3-1.3-6.9-.6-6.9 1 0 .6-.4 1-1 1-.5 0-1-.6-1-1.4 0-1.9-2.8-2.8-5-1.6-1 .5-4.8.9-8.4.9-6.7-.1-10.1 1.2-9.2 3.7.8 2.2-.6 2.4-2.4.2-1.5-1.9-3-2.2-12.1-2.6-5.7-.2-11-.8-11.8-1.2-.7-.4-3.1-.3-5.3.2-2.2.4-4.4.5-5 .2-.6-.4-4.9-.8-9.7-1-10.3-.4-24-2.8-29.8-5.4-4.1-1.8-6.6-4.8-6.1-7.3.3-1.4-3.3-9.7-4.2-9.7-1.5 0-2.7-4.9-2.9-11.4-.3-7.3.4-8.6 4.7-8.6 1.2 0 2.5-.6 2.8-1.4.3-.9 1.5-1.3 2.9-1 1.3.2 2.7 0 3-.6 1-1.7 3.2-1.1 3.8.9.4 1.8 1.2 2 10.8 1.6 11.3-.5 15.1-.9 16.5-1.7.5-.3 3.6-.9 6.9-1.3 7.8-.9 12.2-2.8 13.7-5.9.6-1.5 1.8-2.6 2.7-2.6.9 0 3.6-2.6 6.1-5.7 7.6-9.7 7.8-9.9 9.4-20.6.3-1.6.6-7.9.7-14 .1-6.1.6-12.2 1.2-13.4.7-1.7.5-3.4-.8-6.9-1.7-4.4-1.7-4.7 0-5.6 1.3-.8 1.5-1.8 1.1-4.2-.3-1.7-.6-6.5-.7-10.6-.1-4.1-.5-8.5-1-9.7-.6-1.6-.2-3.1 1.4-5.5 1.3-1.8 2.8-3.3 3.4-3.3.7 0 1.7-.5 2.4-1.2.9-.9 1.7-.9 3.2-.1 2.4 1.3 14.5.4 16.1-1.2.6-.6 1.7-.7 2.6-.3.8.4 4.9.8 9 .9zm79.5-.7c.3.5 2.9.7 5.9.4 4-.4 6-.2 7.7 1 1.7 1.2 2.6 1.4 3.6.6 4-3.4 5.8 4.2 2.8 11.6l-1.6 3.7 3.4 3.2c3.4 3.2 3.4 3.3 2.2 7.2-.7 2.1-1.6 9.1-1.9 15.4-.3 6.3-.8 13.5-1 16-.2 2.8.1 5.4 1 6.8 1.2 1.7 1.3 3.1.5 6-.8 2.6-.7 4.6.1 6.9.9 2.5.9 3.7-.1 5.6-1.6 3.1-7.2 5.8-9.3 4.6-.9-.5-5.6-1.1-10.6-1.4-5-.3-10.9-1.2-13.2-2-2.4-.8-5.7-1.5-7.4-1.5-1.7 0-4.6-.9-6.3-2-1.8-1.1-3.3-1.5-3.3-.9s-.6.9-1.2.6c-.7-.2-1.2-1.1-1-2 .1-.9-.4-3-1.3-4.7-.9-1.7-1.3-3.4-1.1-3.9.3-.5-.3-1.6-1.4-2.6-1-.9-2.2-3.1-2.6-4.9-.3-1.7-1.1-3.6-1.6-4.3-1.3-1.6-.5-10.9 1.3-15 1.1-2.8 1.1-4.1-.1-9-1.2-5.2-1.5-9.9-1-18.8.1-1.7.1-4.5-.1-6.3-.2-3.9 1.5-6 5.6-6.8 1.5-.3 3.6-.9 4.7-1.5 1.2-.6 2.4-.6 3.6 0 2.7 1.4 15.3.7 18.7-1.1 3.7-1.9 4.2-2 5-.9zm40.5 71.5c0 .3-.4.8-1 1.1-.5.3-1 .1-1-.4 0-.6.5-1.1 1-1.1.6 0 1 .2 1 .4zM455 552c0 .5-.5 1-1.1 1-.5 0-.7-.5-.4-1 .3-.6.8-1 1.1-1 .2 0 .4.4.4 1zm-28 13.9c0 .6-.4 1.3-1 1.6-.5.3-1-.1-1-.9 0-.9.5-1.6 1-1.6.6 0 1 .4 1 .9zm-44 5.1c0 1.3-1.1 1.3-3 0-1.2-.8-1.1-1 .8-1 1.2 0 2.2.4 2.2 1zm-11 17c0 .5-.5 1-1.1 1-.5 0-.7-.5-.4-1 .3-.6.8-1 1.1-1 .2 0 .4.4.4 1zm49 31.4c0 .3-.4.8-1 1.1-.5.3-1 .1-1-.4 0-.6.5-1.1 1-1.1.6 0 1 .2 1 .4zm77.5 12.5c.3.5.1 1.2-.5 1.6-.5.3-1-.1-1-.9 0-1.8.6-2.1 1.5-.7z"/><path d="M75.8 362.6c-3.3 1.4-3.8 2.1-4.4 6.2-.4 2.8-.2 5.8.5 7.6.9 2.5.8 3.7-.8 6.8l-1.8 3.7 2.9 2.6c2.1 1.9 2.6 3 1.9 3.9-2.2 2.6-3 9.7-1.6 13.6 1.2 3.3 1.2 4 0 5-2.5 2.1-4.8 11.8-3.6 15.3 1.7 4.8 1.3 11.3-1 15.7-1.7 3.1-2 5.1-1.5 9.4.6 6.4 2 9.6 4.3 9.6 1.1 0 1.4.6.8 2.2-1.2 3.9-1.1 41.6.2 42.9.7.7.8 2.1.3 4-.5 1.6-.6 2.9-.4 2.9.3 0-.2 1-1 2.2-1 1.4-1.2 2.6-.6 3.3 1.8 2.1 2 18.6.3 21.8-.9 1.8-1.2 4.2-.9 6.5.4 2.1.9 9.1 1.1 15.7.3 6.6 1 12.4 1.5 12.9 1.6 1.6 1.2 2.6-1 2.6-2.3 0-2.3 0-1.1 5.5.5 2.2 1.2 7.8 1.6 12.3.3 4.6 1 9.5 1.6 10.9.5 1.5.6 3.1 0 4.1-1.3 2.4 1.2 6.7 4.9 8.2 1.6.7 3 1.8 3 2.5s1.9 2.2 4.3 3.3c2.4 1.1 4.9 2.7 5.6 3.6 1.8 2.1 6.5 3.5 14.3 4 3.7.3 8.2 1.1 10 2 5.9 2.6 13.7 3.8 17.3 2.5 2.1-.8 4.8-.9 8.1-.3 2.7.4 5.6.7 6.4.6 1.2-.2 8.7-.6 21.5-1.1.6 0 2.4.1 4 .3 1.7.2 4.1-.1 5.4-.6 1.9-.7 3.1-.4 5.4 1.3 3.1 2.3 2.4 2.4 11.9-2.2 1.3-.6 2-.3 2.8 1.1 1.3 2.3 4.8 2.7 5.6.5.5-1.1 1.5-1.3 3.8-.9 6.4 1.3 29.5 1.7 50.1 1 15-.5 21.2-1.3 22.1-2.7.3-.6 1.2-.8 1.9-.5 1.7.6 7.1-2.8 9.1-5.9 2.4-3.7 2.3-11.8-.2-15.3-3.6-4.9-7.8-6.3-18.4-6.1-5.2.1-10 .5-10.6 1-.7.6-2.6.3-4.9-.7-2.3-.9-5.2-1.3-7.4-1-3.8.6-19.8 1.9-24.1 1.9-1.4 0-5.4-.3-9-.8-6.8-.8-8.7-.8-21.4-.1-7.7.5-9.9 1.5-8.9 4.1.4 1.3-2.2 4.5-3.8 4.5-2.2 0-2-3.1.2-5 1.8-1.4 2-2 .9-2.1-.8-.1-2.6-.4-4-.5-6-.8-21.8-1-24.9-.3-2.5.6-4.1.3-5.9-.9-1.9-1.2-2.7-1.3-3-.4-.5 1.5-11.2 1.6-16.1.2-2.5-.7-3.9-.6-4.9.2-.8.7-5.1 1.2-10.6 1.2l-9.3.1-3.6-3.9c-2-2.1-3.7-4.5-3.7-5.2 0-.7 1.6-2.4 3.6-3.8 2.8-1.9 4.1-2.2 6.7-1.6 9.1 2.4 14.8 2.9 25 2.5 6.1-.2 12.3-.7 13.7-1.1 1.4-.4 4.8-.6 7.5-.5 2.8.2 7.7.4 11 .5 3.3.2 7.2.6 8.8 1.1 1.7.4 3.3.3 4.1-.5 1.1-.8 2.5-.9 5-.1 2 .5 6.2.7 9.4.4 3.1-.3 8.2-.4 11.2-.3 11.5.7 39.1-.2 40.7-1.3.7-.4 2.6-.1 4.3.8 2.4 1.2 3.5 1.3 4.5.5.9-.8 2.9-.8 6.3-.2 2.7.5 5.7.7 6.8.4 1-.2 6.5-.7 12.1-1 10.9-.7 12.5-1.5 12.9-5.9.1-1.5.8-5.1 1.5-7.9 1.3-5.5.6-10.4-1.5-10.4-.7 0-2.5-.9-4-2.1-2.9-2.3-6.9-2.6-19.1-1.3-3.8.5-8.3.7-10 .6-3.5-.2-16.2-.4-25-.3-3.3.1-8.9-.1-12.5-.4-11.4-.9-13.2-.8-20.3 1-1.7.4-3.3.3-4.2-.5-.9-.8-2.9-.9-5.7-.5-2.4.4-5.5.9-6.9 1-1.5.1-3.7 1-5 1.8-2 1.5-2.3 1.5-3.4.1-1.4-1.9-8-3-9-1.4-.5.8-1.2.7-2.5-.5-1.6-1.4-1.8-1.4-2.4 0-.4 1.2-1 1.4-2.5.5-3-1.5-4-1.2-5.3 1.5-1.3 2.9-2.5 3.1-4.9.9-1.3-1.2-4.4-1.7-12.1-2-5.7-.1-11.6-.7-13.3-1.2-4.8-1.4-15.3-.7-17.4 1.2-1.7 1.5-2 1.4-5.5-1.7-2.7-2.5-3.6-4.1-3.6-6.6 0-4.3 1.6-7.1 4.1-7.1 2.6 0 3.7-3 1.6-4.5s-2.2-2.5-.3-2.5c.8 0 2.1.8 2.8 1.8 1.2 1.6 9.1 4.5 11.3 4.1 4-.7 25.9-.6 29.9.2 3.4.6 5.3.6 6.3-.2.7-.7 2.6-.9 4.4-.5 1.7.3 4 .1 5.1-.5 1.4-.8 2.9-.7 5.6.4 4 1.5 10.9 1.4 12.4-.1.6-.6 2.2-.7 4.1-.1 1.7.5 8.1.8 14.1.8 6.9 0 13.1.5 16.5 1.4 4.5 1.3 5.7 1.3 8 .1 1.9-1.1 5.8-1.3 15.4-1 11.2.4 13.3.2 15.9-1.4 2.4-1.5 3.5-1.6 5.9-.6 2.6.9 3.2.8 4-.7 1.2-2.1 3.2-2.2 5-.1 2 2.4 5.1 3.3 7.6 2.1 1.6-.7 2.6-.7 3.5.1 1 .8 2.5.3 5.8-1.8 7.7-4.9 8.2-5.6 7.5-10.2-.8-4.7-5.2-15-6.8-16-1.5-1-7.2.1-10.6 1.8-3.6 1.9-4.8 1.7-5.4-.6-.7-2.6-2.4-2.6-3.2 0-.5 1.6-1 1.8-2.6 1-2.3-1.3-12.9-2-14.9-.9-2 .9-9.1-1.5-10.2-3.5-.8-1.4-1.2-1.4-4 0-2.3 1.2-5.4 1.5-11.7 1.3-18.2-.5-48.6.2-48.9 1.1-.5 1.3-3.8 1.3-6.4-.1-3.5-1.9-11.1-1.3-12.9 1-1.6 1.9-1.6 1.9-3.3-.1-1.6-1.9-2.6-2-12.8-1.5-6.1.3-11.6 1.1-12.4 1.8-1 .8-1.8.8-2.6.1-.7-.6-3.3-1.1-5.8-1.3-2.5-.1-6.3-1.2-8.6-2.5l-4.1-2.3-1.1 2.4c-.6 1.3-2.5 3.1-4.1 3.9-2.8 1.5-3.1 1.5-5-.9-1.6-2.1-1.9-3.6-1.5-8.7.3-3.4.7-6.5.9-6.9.3-.4-.9-2.4-2.6-4.5l-3.1-3.9 2.9-.5c2.1-.4 2.7-1.1 2.5-2.5-.4-3.3-.4-6.7.1-12 .5-6-.9-11.9-2.7-11.2-3.6 1.4-3.9-3.4-.5-6.3 1.3-1.1 1.9-3.6 2.4-9 .3-4.1.7-7.6.9-7.8.2-.2-.2-2.7-.8-5.7-1-4.2-1-5.8 0-7.6 1.3-2.5 1-7.9-.6-10.9-.5-.9-.6-2-.2-2.4.3-.4.7-6.6.8-13.9.1-7.3.4-14.8.8-16.7 1.1-5.4 1.3-12.3.6-15-.4-1.4-.4-3.4 0-4.5s.5-2.5.1-3c-.3-.6-.6-2.3-.7-3.8-.2-3.3-1.2-4.6-4.2-5.2-1.1-.2-3-.8-4.1-1.4-2.7-1.5-5.9-1.3-10.3.5zm1.9 62.6c-.3.8-.6.5-.6-.6-.1-1.1.2-1.7.5-1.3.3.3.4 1.2.1 1.9zM267 546c0 .5-.2 1-.4 1-.3 0-.8-.5-1.1-1-.3-.6-.1-1 .4-1 .6 0 1.1.4 1.1 1zM555.5 400.1c-1 1.5.3 2.5 1.6 1.2.7-.7.7-1.3.1-1.7-.6-.3-1.4-.1-1.7.5zM19.9 38.6c-1 1.3-1 1.7.2 2.5 2.3 1.4 2.9 1.1 2.9-1.6 0-2.9-1.2-3.2-3.1-.9z"/></svg>